<svg xmlns="http://www.w3.org/2000/svg"
viewBox = "0 0 500 500"
width="500"
height="500">
<g fill="None" fill-opacity="0.0" stroke="#000000" stroke-opacity="0.00" stroke-width="0.3"><path d="
M 0.00 500.00 
L 500.00 500.00
L 500.00 0.00
L 0.00 0.00
L 0.00 500.00
M 271.00 97.00 
C 271.32 97.24 272.00 97.00 272.00 97.00
C 276.08 98.99 278.60 104.21 280.00 108.00
C 280.71 109.93 281.44 111.76 281.00 114.00
C 290.34 111.75 298.75 115.29 308.00 116.00
C 310.03 115.91 312.92 115.75 315.00 116.00
C 327.92 116.23 340.74 125.24 352.00 131.00
C 354.41 132.23 356.85 133.84 359.00 135.00
C 368.93 138.94 372.80 148.76 373.00 159.00
C 375.53 179.89 374.35 203.27 374.00 225.00 C 373.65 246.73 376.38 271.19 373.00 292.00
C 372.06 309.35 356.74 322.14 341.92 328.92 C 327.09 335.70 311.90 345.57 297.00 352.00
C 291.90 355.29 285.87 359.43 281.00 361.00
C 262.33 367.03 240.40 387.14 219.00 382.00 C 197.60 376.86 180.31 370.57 162.25 355.75 C 144.18 340.94 148.09 310.51 148.00 287.00 C 147.91 263.49 147.96 228.38 148.00 204.00 C 148.04 179.62 173.85 172.10 192.00 165.00
C 192.91 152.93 190.00 141.25 193.00 130.00
C 195.53 118.39 201.28 111.28 209.00 104.00
C 212.02 101.15 214.78 99.03 219.00 97.00
C 220.98 95.82 221.88 95.68 224.00 95.00
C 230.41 91.83 240.08 86.54 248.00 88.00 C 255.92 89.46 267.47 89.13 271.00 97.00 Z"/>
</g>
<g fill="None" fill-opacity="0.0" stroke="#A6BAC2" stroke-opacity="0.26" stroke-width="0.3"><path d="
M 224.00 95.00 
C 240.48 89.68 255.73 85.33 271.00 97.00
C 267.47 89.13 255.92 89.46 248.00 88.00 C 240.08 86.54 230.41 91.83 224.00 95.00 Z"/>
</g>
<g fill="None" fill-opacity="0.0" stroke="#182D3C" stroke-opacity="0.98" stroke-width="0.3"><path d="
M 224.00 95.00 
C 221.88 95.68 220.98 95.82 219.00 97.00
C 215.81 98.89 211.87 101.35 209.00 104.00
C 201.43 111.00 196.15 120.92 193.00 130.00
C 190.00 141.25 192.91 152.93 192.00 165.00
C 173.85 172.10 148.04 179.62 148.00 204.00 C 147.96 228.38 147.91 263.49 148.00 287.00 C 148.09 310.51 144.18 340.94 162.25 355.75 C 180.31 370.57 197.60 376.86 219.00 382.00 C 240.40 387.14 262.33 367.03 281.00 361.00
C 286.38 357.57 290.87 354.65 297.00 352.00
C 311.90 345.57 327.09 335.70 341.92 328.92 C 356.74 322.14 372.06 309.35 373.00 292.00
C 375.38 248.14 373.88 202.93 373.00 159.00
C 372.80 148.76 368.93 138.94 359.00 135.00
C 356.19 133.88 354.36 132.51 352.00 131.00
C 340.74 125.24 327.92 116.23 315.00 116.00
C 312.67 115.96 310.33 116.12 308.00 116.00
C 298.75 115.29 290.34 111.75 281.00 114.00
C 281.44 111.76 280.71 109.93 280.00 108.00
C 278.44 104.66 274.52 99.89 272.00 97.00
C 272.00 97.00 271.32 97.24 271.00 97.00
C 255.73 85.33 240.48 89.68 224.00 95.00
M 271.00 108.00 
C 274.30 113.79 275.13 118.44 267.00 120.00
C 266.19 120.16 264.47 121.86 263.00 121.00
C 263.05 117.54 259.50 115.72 258.00 113.00
C 256.87 112.48 254.84 111.20 254.00 111.00
C 249.10 110.55 244.56 111.55 240.00 112.00
C 229.34 115.79 218.48 120.70 213.69 132.69 C 208.91 144.69 212.93 162.60 212.00 176.00
C 207.88 176.39 202.91 182.92 200.00 179.00
C 197.60 171.98 200.73 161.43 200.00 154.00 C 199.27 146.57 199.06 136.96 201.00 130.00
C 202.00 126.41 203.72 123.67 206.00 121.00
C 217.47 101.69 256.19 81.99 271.00 108.00
M 222.00 151.00 
C 220.96 151.40 220.10 154.35 218.00 153.00
C 218.65 148.17 216.69 142.01 219.00 138.00
C 223.04 123.73 239.23 117.58 252.00 117.00
C 252.38 120.36 256.87 122.09 256.00 126.00
C 243.16 133.42 237.93 149.08 222.00 151.00
M 295.00 121.00 
C 305.50 121.71 319.19 131.26 318.00 144.00 C 316.81 156.75 320.65 176.97 318.00 190.00
C 316.94 195.21 311.30 200.30 307.00 196.00
C 300.55 190.31 306.95 173.35 305.00 165.00 C 303.05 156.65 307.98 142.45 298.92 137.08 C 289.86 131.71 281.33 137.34 272.92 140.92 C 264.52 144.51 260.68 148.54 256.08 157.08 C 251.47 165.61 253.93 177.78 253.00 188.00 C 252.07 198.22 255.08 211.78 253.00 222.00
C 251.49 229.40 242.81 233.11 240.00 225.00
C 235.41 211.76 239.00 190.54 239.00 176.00
C 239.00 163.12 240.83 145.97 251.75 137.75 C 262.67 129.54 273.35 121.74 287.00 121.00
C 289.88 120.53 292.16 120.49 295.00 121.00
M 317.00 123.00 
C 321.83 124.08 327.87 127.68 332.23 129.77 C 336.59 131.87 344.59 134.31 348.08 136.92 C 351.56 139.54 361.81 141.14 362.00 146.00
C 362.07 147.63 360.02 149.16 359.00 150.00
C 353.86 154.24 345.43 152.54 340.31 148.69 C 335.18 144.85 327.83 143.95 324.00 139.00
C 320.25 134.16 320.61 125.93 314.00 123.00
C 314.22 121.72 316.81 121.58 317.00 123.00
M 296.00 147.00 
C 299.61 156.78 297.29 169.14 298.00 180.00
C 287.11 186.30 275.65 191.08 264.75 196.75 C 253.85 202.43 260.34 181.60 260.00 178.00
C 261.65 172.58 264.18 172.29 269.00 170.00
C 269.56 169.73 270.22 169.31 271.00 169.00
C 275.96 167.02 282.81 169.65 283.99 163.99 C 285.18 158.33 281.68 148.60 285.00 144.00
C 288.48 139.18 294.40 142.66 296.00 147.00
M 276.00 150.00 
C 277.16 156.50 266.97 166.63 266.00 157.00
C 265.40 151.05 272.20 149.66 276.00 147.00
C 276.00 148.00 276.00 149.00 276.00 150.00
M 342.00 156.00 
C 338.83 161.61 335.35 162.14 328.97 164.97 C 322.60 167.81 323.60 155.08 324.00 150.00
C 330.62 149.92 335.76 154.70 342.00 156.00
M 219.00 163.00 
C 219.00 162.50 219.00 162.00 219.00 162.00
C 220.30 159.12 226.93 155.51 230.00 156.00
C 230.93 154.69 232.44 155.05 234.00 155.00
C 233.48 160.01 231.42 164.68 232.00 170.00
C 227.76 172.00 223.68 174.42 219.00 175.00
C 219.00 171.00 219.00 167.00 219.00 163.00
M 326.00 191.00 
C 322.84 182.12 324.09 172.31 332.68 169.68 C 341.26 167.05 345.39 162.86 353.23 159.23 C 361.07 155.60 372.73 154.83 364.69 167.69 C 356.66 180.55 338.59 183.40 326.00 191.00
M 194.00 183.00 
C 194.00 183.50 194.12 184.53 194.00 185.00
C 191.20 195.72 169.73 201.84 163.00 194.00
C 161.13 191.82 160.15 192.63 161.00 190.00
C 163.54 182.17 172.10 182.94 179.08 178.08 C 186.07 173.22 194.00 170.44 194.00 183.00
M 206.00 207.00 
C 194.83 210.30 193.55 212.33 183.00 206.00
C 181.82 205.48 180.64 205.08 180.00 204.00
C 178.66 201.75 191.02 197.47 194.69 195.69 C 198.37 193.92 208.22 188.35 213.00 188.00
C 214.32 185.56 217.75 185.19 220.00 184.00
C 221.26 183.34 222.56 182.62 224.00 182.00
C 226.34 180.99 228.72 178.83 232.00 180.00
C 232.00 183.67 232.00 187.33 232.00 191.00
C 223.94 196.40 215.88 204.48 206.00 207.00
M 322.00 218.00 
C 290.14 233.24 258.77 255.74 225.00 267.00
C 215.20 270.27 203.83 267.75 195.75 262.25 C 187.68 256.74 178.65 253.11 170.92 249.08 C 163.20 245.04 150.34 236.03 158.00 228.00
C 159.84 226.07 159.04 226.65 161.00 227.00
C 172.36 229.00 182.51 237.95 193.08 242.92 C 203.65 247.88 217.77 254.38 229.07 247.07 C 240.38 239.76 249.44 236.71 260.69 230.69 C 271.95 224.68 281.21 220.29 292.69 214.69 C 304.18 209.10 311.97 203.32 324.25 198.25 C 336.52 193.17 343.72 189.53 357.08 183.08 C 370.44 176.62 367.75 199.00 354.77 202.77 C 341.79 206.54 334.49 214.00 322.00 218.00
M 299.00 194.00 
C 299.16 196.77 298.78 198.88 298.00 201.00
C 293.31 213.70 269.68 216.18 260.00 223.00
C 259.83 216.15 258.14 204.56 265.23 202.23 C 272.32 199.89 277.27 195.91 283.23 193.23 C 289.19 190.55 299.38 183.43 299.00 194.00
M 232.00 197.00 
C 232.00 202.33 232.00 207.67 232.00 213.00
C 222.21 217.12 211.13 223.95 201.00 216.00
C 211.25 210.07 222.71 204.23 232.00 197.00
M 222.00 243.00 
C 214.65 245.05 214.88 244.65 206.78 242.22 C 198.68 239.80 189.14 233.09 181.77 229.23 C 174.40 225.37 174.92 225.81 169.77 223.23 C 164.62 220.65 162.16 217.93 158.75 215.25 C 155.35 212.57 154.34 200.77 157.00 200.00
C 162.13 199.01 168.71 207.16 174.23 208.77 C 179.75 210.38 186.05 215.53 192.08 217.92 C 198.10 220.32 203.60 224.68 211.01 224.99 C 218.42 225.31 226.42 223.19 233.00 220.00
C 236.83 229.64 233.37 241.71 222.00 243.00
M 308.00 252.00 
C 282.51 266.82 254.52 279.44 228.00 293.00
C 216.65 298.80 205.11 294.45 194.92 289.08 C 184.74 283.70 178.61 276.52 167.75 273.25 C 156.89 269.97 149.47 248.11 166.00 255.00
C 169.68 256.53 173.37 258.12 177.00 260.00
C 177.33 260.17 177.77 260.72 178.00 261.00
C 185.45 264.67 192.83 269.13 200.00 273.00
C 213.12 280.08 228.05 275.40 240.00 268.00
C 249.48 262.13 261.77 256.98 271.70 251.70 C 281.62 246.41 293.30 239.53 303.23 235.23 C 313.16 230.93 326.36 222.49 335.23 219.23 C 344.10 215.97 362.98 200.96 365.99 214.01 C 369.00 227.06 348.81 231.58 340.31 236.31 C 331.80 241.03 317.05 246.74 308.00 252.00
M 367.00 240.00 
C 367.52 245.14 362.03 251.32 358.00 254.00
C 344.17 263.20 326.62 269.04 311.77 276.77 C 296.92 284.50 280.04 293.32 264.78 299.78 C 249.51 306.23 233.07 321.00 216.00 321.00
C 205.40 321.00 194.67 314.36 185.77 309.23 C 176.87 304.10 165.80 301.31 160.00 293.00
C 162.35 293.85 163.23 297.24 166.00 297.00
C 161.56 292.08 156.68 287.03 157.00 280.00
C 159.30 280.68 162.36 277.25 164.00 280.00
C 180.72 283.48 192.47 300.81 210.00 302.00
C 212.94 302.20 216.06 302.11 219.00 302.00
C 221.73 301.90 223.52 301.71 226.00 301.00
C 247.75 294.76 265.76 277.57 287.08 270.08 C 308.39 262.59 327.27 245.86 349.00 240.00
C 349.19 239.68 349.67 239.17 350.00 239.00
C 354.53 236.65 366.01 230.12 367.00 240.00
M 366.00 266.00 
C 366.04 266.93 366.12 268.07 366.00 269.00
C 364.48 280.48 350.45 283.32 341.77 287.77 C 333.09 292.22 321.32 298.30 312.00 302.00
C 297.21 309.98 284.11 317.77 268.32 324.32 C 252.53 330.88 241.12 341.15 223.92 345.92 C 206.73 350.70 188.23 332.85 172.00 332.00
C 187.53 347.08 213.09 359.58 234.00 348.00
C 255.05 338.70 274.93 325.53 296.23 317.23 C 317.53 308.92 337.45 291.20 360.00 287.00
C 368.88 285.34 365.09 292.38 361.75 297.75 C 358.40 303.11 354.51 306.65 348.00 308.00
C 338.55 312.03 330.19 318.18 320.92 322.92 C 311.65 327.65 301.44 332.37 291.77 336.77 C 282.10 341.17 272.78 346.82 262.92 350.92 C 253.07 355.03 244.40 361.93 233.98 364.98 C 223.55 368.02 207.13 367.97 197.75 364.25 C 188.38 360.52 178.79 353.85 171.00 348.00
C 168.79 350.46 173.57 351.74 174.00 354.00
C 172.17 353.73 169.70 352.98 169.00 351.00
C 162.45 345.62 158.78 338.02 157.00 330.00
C 155.25 322.12 156.23 312.60 156.00 304.00
C 158.03 305.77 156.53 309.48 157.00 312.00
C 159.03 310.23 157.53 306.52 158.00 304.00
C 178.43 309.28 195.68 328.63 218.00 327.00
C 235.22 324.20 252.64 314.48 268.00 306.00
C 268.73 305.06 269.88 304.56 271.00 304.00
C 274.26 302.36 277.81 301.57 281.00 300.00
C 281.19 299.68 281.72 299.23 282.00 299.00
C 290.15 292.20 303.24 287.56 313.00 283.00
C 323.36 278.16 333.93 273.55 344.00 268.00
C 348.88 265.31 365.43 253.81 366.00 266.00
M 335.00 324.00 
C 315.92 332.24 299.85 344.80 280.31 352.31 C 260.76 359.81 241.49 376.76 220.00 374.00
C 241.97 373.36 260.70 359.23 280.07 351.07 C 299.45 342.91 315.88 331.41 335.00 323.00
C 340.94 320.43 346.26 316.90 352.00 314.00
C 348.55 318.91 340.84 321.62 335.00 324.00 Z"/>
</g>
<g fill="None" fill-opacity="0.0" stroke="#A2DEE9" stroke-opacity="1.00" stroke-width="0.3"><path d="
M 206.00 121.00 
C 214.76 110.75 228.42 100.07 242.00 98.00
C 245.00 97.54 248.97 97.72 252.00 98.00
C 258.44 98.59 266.73 102.81 271.00 108.00
C 256.19 81.99 217.47 101.69 206.00 121.00 Z"/>
</g>
<g fill="None" fill-opacity="0.0" stroke="#B5C0C2" stroke-opacity="0.11" stroke-width="0.3"><path d="
M 209.00 104.00 
C 211.87 101.35 215.81 98.89 219.00 97.00
C 214.78 99.03 212.02 101.15 209.00 104.00 Z"/>
</g>
<g fill="None" fill-opacity="0.0" stroke="#7F9DA8" stroke-opacity="0.15" stroke-width="0.3"><path d="
M 280.00 108.00 
C 278.60 104.21 276.08 98.99 272.00 97.00
C 274.52 99.89 278.44 104.66 280.00 108.00 Z"/>
</g>
<g fill="None" fill-opacity="0.0" stroke="#44C1DC" stroke-opacity="1.00" stroke-width="0.3"><path d="
M 206.00 121.00 
C 203.72 123.67 202.00 126.41 201.00 130.00
C 204.64 130.66 210.70 130.92 214.00 128.00
C 219.07 118.81 227.02 115.57 236.00 112.00
C 242.01 109.61 249.47 107.56 254.00 106.00
C 249.99 103.39 245.46 100.75 242.00 98.00
C 228.42 100.07 214.76 110.75 206.00 121.00 Z"/>
</g>
<g fill="None" fill-opacity="0.0" stroke="#34A8C9" stroke-opacity="1.00" stroke-width="0.3"><path d="
M 236.00 112.00 
C 237.31 111.84 238.68 112.13 240.00 112.00
C 244.56 111.55 249.10 110.55 254.00 111.00
C 258.60 111.42 260.97 114.67 265.00 114.00
C 265.78 110.09 259.63 108.00 264.00 105.00
C 261.59 100.47 254.58 102.32 252.00 98.00
C 248.97 97.72 245.00 97.54 242.00 98.00
C 245.46 100.75 249.99 103.39 254.00 106.00
C 249.47 107.56 242.01 109.61 236.00 112.00 Z"/>
</g>
<g fill="None" fill-opacity="0.0" stroke="#2F8EB4" stroke-opacity="1.00" stroke-width="0.3"><path d="
M 254.00 111.00 
C 254.84 111.20 256.87 112.48 258.00 113.00
C 261.80 114.75 263.53 119.60 267.00 120.00
C 275.13 118.44 274.30 113.79 271.00 108.00
C 266.73 102.81 258.44 98.59 252.00 98.00
C 254.58 102.32 261.59 100.47 264.00 105.00
C 259.63 108.00 265.78 110.09 265.00 114.00
C 260.97 114.67 258.60 111.42 254.00 111.00 Z"/>
</g>
<g fill="None" fill-opacity="0.0" stroke="#687A84" stroke-opacity="0.26" stroke-width="0.3"><path d="
M 193.00 130.00 
C 196.15 120.92 201.43 111.00 209.00 104.00
C 201.28 111.28 195.53 118.39 193.00 130.00 Z"/>
</g>
<g fill="None" fill-opacity="0.0" stroke="#2B7093" stroke-opacity="1.00" stroke-width="0.3"><path d="
M 214.00 128.00 
C 208.33 138.28 210.21 152.48 203.75 160.75 C 197.29 169.03 206.06 171.82 200.00 179.00
C 202.91 182.92 207.88 176.39 212.00 176.00
C 212.93 162.60 208.91 144.69 213.69 132.69 C 218.48 120.70 229.34 115.79 240.00 112.00
C 238.68 112.13 237.31 111.84 236.00 112.00
C 227.02 115.57 219.07 118.81 214.00 128.00 Z"/>
</g>
<g fill="None" fill-opacity="0.0" stroke="#29657C" stroke-opacity="1.00" stroke-width="0.3"><path d="
M 267.00 120.00 
C 263.53 119.60 261.80 114.75 258.00 113.00
C 259.50 115.72 263.05 117.54 263.00 121.00
C 264.47 121.86 266.19 120.16 267.00 120.00 Z"/>
</g>
<g fill="None" fill-opacity="0.0" stroke="#7F8F9A" stroke-opacity="0.07" stroke-width="0.3"><path d="
M 308.00 116.00 
C 310.33 116.12 312.67 115.96 315.00 116.00
C 312.92 115.75 310.03 115.91 308.00 116.00 Z"/>
</g>
<g fill="None" fill-opacity="0.0" stroke="#000000" stroke-opacity="0.00" stroke-width="0.3"><path d="
M 219.00 138.00 
C 218.30 142.56 219.52 147.41 219.00 152.00
C 220.28 152.53 220.86 151.03 222.00 151.00
C 237.93 149.08 243.16 133.42 256.00 126.00
C 256.87 122.09 252.38 120.36 252.00 117.00
C 239.23 117.58 223.04 123.73 219.00 138.00 Z"/>
</g>
<g fill="None" fill-opacity="0.0" stroke="#848D93" stroke-opacity="1.00" stroke-width="0.3"><path d="
M 287.00 121.00 
C 289.60 120.86 292.40 120.82 295.00 121.00
C 292.16 120.49 289.88 120.53 287.00 121.00 Z"/>
</g>
<g fill="None" fill-opacity="0.0" stroke="#DBE9E7" stroke-opacity="1.00" stroke-width="0.3"><path d="
M 239.00 176.00 
C 240.25 188.89 240.00 203.39 240.00 217.00
C 240.27 219.75 241.91 225.95 245.08 226.92 C 248.25 227.89 253.16 221.53 253.00 222.00
C 255.08 211.78 252.07 198.22 253.00 188.00 C 253.93 177.78 251.47 165.61 256.08 157.08 C 260.68 148.54 264.52 144.51 272.92 140.92 C 281.33 137.34 289.86 131.71 298.92 137.08 C 307.98 142.45 303.05 156.65 305.00 165.00 C 306.95 173.35 300.55 190.31 307.00 196.00
C 306.44 195.51 309.87 196.07 310.00 197.00
C 313.76 195.73 313.84 190.17 318.00 190.00
C 320.65 176.97 316.81 156.75 318.00 144.00 C 319.19 131.26 305.50 121.71 295.00 121.00
C 292.40 120.82 289.60 120.86 287.00 121.00
C 273.35 121.74 262.67 129.54 251.75 137.75 C 240.83 145.97 239.00 163.12 239.00 176.00 Z"/>
</g>
<g fill="None" fill-opacity="0.0" stroke="#3887A6" stroke-opacity="1.00" stroke-width="0.3"><path d="
M 324.00 139.00 
C 323.36 137.53 335.03 142.13 339.08 144.92 C 343.12 147.72 353.36 152.87 359.00 150.00
C 360.02 149.16 362.07 147.63 362.00 146.00
C 354.61 142.65 347.71 137.78 340.00 135.00
C 332.21 133.83 324.32 130.48 320.00 126.00
C 319.20 125.60 315.95 122.44 317.00 123.00
C 316.81 121.58 314.22 121.72 314.00 123.00
C 320.61 125.93 320.25 134.16 324.00 139.00 Z"/>
</g>
<g fill="None" fill-opacity="0.0" stroke="#A5CEDF" stroke-opacity="1.00" stroke-width="0.3"><path d="
M 320.00 126.00 
C 326.31 129.16 333.33 132.60 340.00 135.00
C 347.71 137.78 354.61 142.65 362.00 146.00
C 361.81 141.14 351.56 139.54 348.08 136.92 C 344.59 134.31 336.59 131.87 332.23 129.77 C 327.87 127.68 321.83 124.08 317.00 123.00
C 315.95 122.44 319.20 125.60 320.00 126.00 Z"/>
</g>
<g fill="None" fill-opacity="0.0" stroke="#326D86" stroke-opacity="1.00" stroke-width="0.3"><path d="
M 340.00 135.00 
C 333.33 132.60 326.31 129.16 320.00 126.00
C 324.32 130.48 332.21 133.83 340.00 135.00 Z"/>
</g>
<g fill="None" fill-opacity="0.0" stroke="#449EBF" stroke-opacity="1.00" stroke-width="0.3"><path d="
M 201.00 130.00 
C 199.06 136.96 199.27 146.57 200.00 154.00 C 200.73 161.43 197.60 171.98 200.00 179.00
C 206.06 171.82 197.29 169.03 203.75 160.75 C 210.21 152.48 208.33 138.28 214.00 128.00
C 210.70 130.92 204.64 130.66 201.00 130.00 Z"/>
</g>
<g fill="None" fill-opacity="0.0" stroke="#7B919B" stroke-opacity="0.42" stroke-width="0.3"><path d="
M 359.00 135.00 
C 356.85 133.84 354.41 132.23 352.00 131.00
C 354.36 132.51 356.19 133.88 359.00 135.00 Z"/>
</g>
<g fill="None" fill-opacity="0.0" stroke="#184D6A" stroke-opacity="1.00" stroke-width="0.3"><path d="
M 324.00 139.00 
C 327.83 143.95 335.18 144.85 340.31 148.69 C 345.43 152.54 353.86 154.24 359.00 150.00
C 353.36 152.87 343.12 147.72 339.08 144.92 C 335.03 142.13 323.36 137.53 324.00 139.00 Z"/>
</g>
<g fill="None" fill-opacity="0.0" stroke="#6E7980" stroke-opacity="0.32" stroke-width="0.3"><path d="
M 222.00 151.00 
C 220.86 151.03 220.28 152.53 219.00 152.00
C 219.52 147.41 218.30 142.56 219.00 138.00
C 216.69 142.01 218.65 148.17 218.00 153.00
C 220.10 154.35 220.96 151.40 222.00 151.00 Z"/>
</g>
<g fill="None" fill-opacity="0.0" stroke="#1A5B82" stroke-opacity="1.00" stroke-width="0.3"><path d="
M 285.00 144.00 
C 283.41 147.21 286.19 152.59 285.00 156.00
C 290.44 154.95 291.87 147.03 296.00 147.00
C 294.40 142.66 288.48 139.18 285.00 144.00 Z"/>
</g>
<g fill="None" fill-opacity="0.0" stroke="#194463" stroke-opacity="1.00" stroke-width="0.3"><path d="
M 271.00 169.00 
C 280.76 167.76 280.03 179.99 273.70 183.70 C 267.37 187.41 261.52 190.91 260.00 197.00
C 260.00 190.67 260.00 184.33 260.00 178.00
C 260.34 181.60 253.85 202.43 264.75 196.75 C 275.65 191.08 287.11 186.30 298.00 180.00
C 297.29 169.14 299.61 156.78 296.00 147.00
C 291.87 147.03 290.44 154.95 285.00 156.00
C 286.19 152.59 283.41 147.21 285.00 144.00
C 281.68 148.60 285.18 158.33 283.99 163.99 C 282.81 169.65 275.96 167.02 271.00 169.00 Z"/>
</g>
<g fill="None" fill-opacity="0.0" stroke="#3C7597" stroke-opacity="1.00" stroke-width="0.3"><path d="
M 266.00 157.00 
C 266.44 158.09 269.30 158.07 270.00 159.00
C 274.08 157.23 272.60 148.96 276.00 150.00
C 276.00 149.00 276.00 148.00 276.00 147.00
C 272.20 149.66 265.40 151.05 266.00 157.00 Z"/>
</g>
<g fill="None" fill-opacity="0.0" stroke="#265775" stroke-opacity="1.00" stroke-width="0.3"><path d="
M 266.00 157.00 
C 266.97 166.63 277.16 156.50 276.00 150.00
C 272.60 148.96 274.08 157.23 270.00 159.00
C 269.30 158.07 266.44 158.09 266.00 157.00 Z"/>
</g>
<g fill="None" fill-opacity="0.0" stroke="#185785" stroke-opacity="1.00" stroke-width="0.3"><path d="
M 342.00 156.00 
C 335.76 154.70 330.62 149.92 324.00 150.00
C 323.60 155.08 322.60 167.81 328.97 164.97 C 335.35 162.14 338.83 161.61 342.00 156.00 Z"/>
</g>
<g fill="None" fill-opacity="0.0" stroke="#285A74" stroke-opacity="1.00" stroke-width="0.3"><path d="
M 230.00 156.00 
C 231.47 156.23 230.31 156.72 230.00 157.00
C 229.42 163.06 232.27 165.11 226.92 169.92 C 221.56 174.72 220.71 165.32 219.00 163.00
C 219.00 167.00 219.00 171.00 219.00 175.00
C 223.68 174.42 227.76 172.00 232.00 170.00
C 231.42 164.68 233.48 160.01 234.00 155.00
C 232.44 155.05 230.93 154.69 230.00 156.00 Z"/>
</g>
<g fill="None" fill-opacity="0.0" stroke="#71A6BE" stroke-opacity="1.00" stroke-width="0.3"><path d="
M 219.00 162.00 
C 222.00 160.93 227.55 159.17 230.00 157.00
C 230.31 156.72 231.47 156.23 230.00 156.00
C 226.93 155.51 220.30 159.12 219.00 162.00 Z"/>
</g>
<g fill="None" fill-opacity="0.0" stroke="#D9E8E7" stroke-opacity="1.00" stroke-width="0.3"><path d="
M 326.00 191.00 
C 338.59 183.40 356.66 180.55 364.69 167.69 C 372.73 154.83 361.07 155.60 353.23 159.23 C 345.39 162.86 341.26 167.05 332.68 169.68 C 324.09 172.31 322.84 182.12 326.00 191.00 Z"/>
</g>
<g fill="None" fill-opacity="0.0" stroke="#357794" stroke-opacity="1.00" stroke-width="0.3"><path d="
M 219.00 162.00 
C 219.00 162.00 219.00 162.50 219.00 163.00
C 220.71 165.32 221.56 174.72 226.92 169.92 C 232.27 165.11 229.42 163.06 230.00 157.00
C 227.55 159.17 222.00 160.93 219.00 162.00 Z"/>
</g>
<g fill="None" fill-opacity="0.0" stroke="#60757D" stroke-opacity="0.38" stroke-width="0.3"><path d="
M 373.00 292.00 
C 376.38 271.19 373.65 246.73 374.00 225.00 C 374.35 203.27 375.53 179.89 373.00 159.00
C 373.88 202.93 375.38 248.14 373.00 292.00 Z"/>
</g>
<g fill="None" fill-opacity="0.0" stroke="#1B5882" stroke-opacity="1.00" stroke-width="0.3"><path d="
M 269.00 170.00 
C 268.98 172.50 261.66 173.01 260.00 178.00
C 260.00 184.33 260.00 190.67 260.00 197.00
C 261.52 190.91 267.37 187.41 273.70 183.70 C 280.03 179.99 280.76 167.76 271.00 169.00
C 270.22 169.31 269.56 169.73 269.00 170.00 Z"/>
</g>
<g fill="None" fill-opacity="0.0" stroke="#5B98BA" stroke-opacity="1.00" stroke-width="0.3"><path d="
M 260.00 178.00 
C 261.66 173.01 268.98 172.50 269.00 170.00
C 264.18 172.29 261.65 172.58 260.00 178.00 Z"/>
</g>
<g fill="None" fill-opacity="0.0" stroke="#CDE1E7" stroke-opacity="1.00" stroke-width="0.3"><path d="
M 161.00 190.00 
C 164.59 182.62 179.37 182.58 185.01 178.01 C 190.65 173.44 191.26 180.80 194.00 183.00
C 194.00 170.44 186.07 173.22 179.08 178.08 C 172.10 182.94 163.54 182.17 161.00 190.00 Z"/>
</g>
<g fill="None" fill-opacity="0.0" stroke="#9EC0C7" stroke-opacity="1.00" stroke-width="0.3"><path d="
M 161.00 190.00 
C 160.15 192.63 161.13 191.82 163.00 194.00
C 170.44 199.70 188.92 191.50 194.00 185.00
C 194.12 184.53 194.00 183.50 194.00 183.00
C 191.26 180.80 190.65 173.44 185.01 178.01 C 179.37 182.58 164.59 182.62 161.00 190.00 Z"/>
</g>
<g fill="None" fill-opacity="0.0" stroke="#6A7F89" stroke-opacity="1.00" stroke-width="0.3"><path d="
M 240.00 225.00 
C 239.50 222.56 240.00 219.49 240.00 217.00
C 240.00 203.39 240.25 188.89 239.00 176.00
C 239.00 190.54 235.41 211.76 240.00 225.00 Z"/>
</g>
<g fill="None" fill-opacity="0.0" stroke="#143F60" stroke-opacity="1.00" stroke-width="0.3"><path d="
M 224.00 182.00 
C 230.80 182.86 223.37 194.19 219.75 196.75 C 216.14 199.32 211.08 204.65 206.00 207.00
C 215.88 204.48 223.94 196.40 232.00 191.00
C 232.00 187.33 232.00 183.67 232.00 180.00
C 228.72 178.83 226.34 180.99 224.00 182.00 Z"/>
</g>
<g fill="None" fill-opacity="0.0" stroke="#CEDFDD" stroke-opacity="1.00" stroke-width="0.3"><path d="
M 161.00 227.00 
C 175.28 231.95 191.84 248.36 209.00 252.00
C 205.38 255.39 199.75 255.91 198.00 261.00
C 202.37 263.05 205.35 263.07 209.67 265.33 C 214.00 267.59 218.58 265.20 223.00 266.00
C 257.15 253.86 287.27 229.13 322.00 218.00
C 334.49 214.00 341.79 206.54 354.77 202.77 C 367.75 199.00 370.44 176.62 357.08 183.08 C 343.72 189.53 336.52 193.17 324.25 198.25 C 311.97 203.32 304.18 209.10 292.69 214.69 C 281.21 220.29 271.95 224.68 260.69 230.69 C 249.44 236.71 240.38 239.76 229.07 247.07 C 217.77 254.38 203.65 247.88 193.08 242.92 C 182.51 237.95 172.36 229.00 161.00 227.00 Z"/>
</g>
<g fill="None" fill-opacity="0.0" stroke="#125787" stroke-opacity="1.00" stroke-width="0.3"><path d="
M 220.00 184.00 
C 219.16 184.72 215.88 187.70 213.00 189.00
C 211.32 189.76 209.72 190.33 208.00 191.00
C 213.71 206.87 194.03 210.90 183.00 206.00
C 193.55 212.33 194.83 210.30 206.00 207.00
C 211.08 204.65 216.14 199.32 219.75 196.75 C 223.37 194.19 230.80 182.86 224.00 182.00
C 222.56 182.62 221.26 183.34 220.00 184.00 Z"/>
</g>
<g fill="None" fill-opacity="0.0" stroke="#427BA0" stroke-opacity="1.00" stroke-width="0.3"><path d="
M 213.00 188.00 
C 212.79 188.39 213.00 189.00 213.00 189.00
C 215.88 187.70 219.16 184.72 220.00 184.00
C 217.75 185.19 214.32 185.56 213.00 188.00 Z"/>
</g>
<g fill="None" fill-opacity="0.0" stroke="#5A7B88" stroke-opacity="1.00" stroke-width="0.3"><path d="
M 163.00 194.00 
C 169.73 201.84 191.20 195.72 194.00 185.00
C 188.92 191.50 170.44 199.70 163.00 194.00 Z"/>
</g>
<g fill="None" fill-opacity="0.0" stroke="#6CAACE" stroke-opacity="1.00" stroke-width="0.3"><path d="
M 180.00 204.00 
C 189.41 199.75 198.41 194.74 208.00 191.00
C 209.72 190.33 211.32 189.76 213.00 189.00
C 213.00 189.00 212.79 188.39 213.00 188.00
C 208.22 188.35 198.37 193.92 194.69 195.69 C 191.02 197.47 178.66 201.75 180.00 204.00 Z"/>
</g>
<g fill="None" fill-opacity="0.0" stroke="#CDDFDF" stroke-opacity="1.00" stroke-width="0.3"><path d="
M 298.00 201.00 
C 298.37 199.54 298.98 194.89 299.00 194.00
C 299.38 183.43 289.19 190.55 283.23 193.23 C 277.27 195.91 272.32 199.89 265.23 202.23 C 258.14 204.56 259.83 216.15 260.00 223.00
C 269.68 216.18 293.31 213.70 298.00 201.00 Z"/>
</g>
<g fill="None" fill-opacity="0.0" stroke="#79909A" stroke-opacity="1.00" stroke-width="0.3"><path d="
M 307.00 196.00 
C 311.30 200.30 316.94 195.21 318.00 190.00
C 313.84 190.17 313.76 195.73 310.00 197.00
C 309.87 196.07 306.44 195.51 307.00 196.00 Z"/>
</g>
<g fill="None" fill-opacity="0.0" stroke="#1C7EBA" stroke-opacity="1.00" stroke-width="0.3"><path d="
M 180.00 204.00 
C 180.64 205.08 181.82 205.48 183.00 206.00
C 194.03 210.90 213.71 206.87 208.00 191.00
C 198.41 194.74 189.41 199.75 180.00 204.00 Z"/>
</g>
<g fill="None" fill-opacity="0.0" stroke="#79888D" stroke-opacity="1.00" stroke-width="0.3"><path d="
M 298.00 201.00 
C 298.78 198.88 299.16 196.77 299.00 194.00
C 298.98 194.89 298.37 199.54 298.00 201.00 Z"/>
</g>
<g fill="None" fill-opacity="0.0" stroke="#1A4261" stroke-opacity="1.00" stroke-width="0.3"><path d="
M 232.00 197.00 
C 222.71 204.23 211.25 210.07 201.00 216.00
C 211.13 223.95 222.21 217.12 232.00 213.00
C 232.00 207.67 232.00 202.33 232.00 197.00 Z"/>
</g>
<g fill="None" fill-opacity="0.0" stroke="#607A86" stroke-opacity="1.00" stroke-width="0.3"><path d="
M 222.00 243.00 
C 218.05 242.79 207.19 240.24 202.00 238.00
C 193.23 234.22 185.58 226.94 176.31 223.70 C 167.03 220.45 156.58 213.00 157.00 202.00
C 157.02 201.50 156.87 200.04 157.00 200.00
C 154.34 200.77 155.35 212.57 158.75 215.25 C 162.16 217.93 164.62 220.65 169.77 223.23 C 174.92 225.81 174.40 225.37 181.77 229.23 C 189.14 233.09 198.68 239.80 206.78 242.22 C 214.88 244.65 214.65 245.05 222.00 243.00 Z"/>
</g>
<g fill="None" fill-opacity="0.0" stroke="#C7D8DA" stroke-opacity="1.00" stroke-width="0.3"><path d="
M 157.00 202.00 
C 163.05 208.63 175.50 209.56 182.70 215.31 C 189.89 221.05 201.00 225.27 210.00 227.00
C 209.47 230.28 205.87 230.95 203.00 230.00
C 209.18 233.00 200.98 234.71 202.00 238.00
C 207.19 240.24 218.05 242.79 222.00 243.00
C 233.37 241.71 236.83 229.64 233.00 220.00
C 226.42 223.19 218.42 225.31 211.01 224.99 C 203.60 224.68 198.10 220.32 192.08 217.92 C 186.05 215.53 179.75 210.38 174.23 208.77 C 168.71 207.16 162.13 199.01 157.00 200.00
C 156.87 200.04 157.02 201.50 157.00 202.00 Z"/>
</g>
<g fill="None" fill-opacity="0.0" stroke="#A3BABE" stroke-opacity="1.00" stroke-width="0.3"><path d="
M 202.00 238.00 
C 200.98 234.71 209.18 233.00 203.00 230.00
C 205.87 230.95 209.47 230.28 210.00 227.00
C 201.00 225.27 189.89 221.05 182.70 215.31 C 175.50 209.56 163.05 208.63 157.00 202.00
C 156.58 213.00 167.03 220.45 176.31 223.70 C 185.58 226.94 193.23 234.22 202.00 238.00 Z"/>
</g>
<g fill="None" fill-opacity="0.0" stroke="#4BDFF7" stroke-opacity="1.00" stroke-width="0.3"><path d="
M 240.00 268.00 
C 244.59 266.40 249.60 264.41 255.25 262.25 C 260.89 260.08 265.52 259.83 270.00 258.00
C 270.26 260.44 271.76 262.52 272.00 265.00
C 269.47 262.35 267.87 267.09 265.00 266.00
C 264.70 267.57 265.25 269.61 267.00 270.00
C 280.22 263.68 294.23 256.35 308.00 252.00
C 317.05 246.74 331.80 241.03 340.31 236.31 C 348.81 231.58 369.00 227.06 365.99 214.01 C 362.98 200.96 344.10 215.97 335.23 219.23 C 326.36 222.49 313.16 230.93 303.23 235.23 C 293.30 239.53 281.62 246.41 271.70 251.70 C 261.77 256.98 249.48 262.13 240.00 268.00 Z"/>
</g>
<g fill="None" fill-opacity="0.0" stroke="#8DAAB7" stroke-opacity="1.00" stroke-width="0.3"><path d="
M 240.00 225.00 
C 242.81 233.11 251.49 229.40 253.00 222.00
C 253.16 221.53 248.25 227.89 245.08 226.92 C 241.91 225.95 240.27 219.75 240.00 217.00
C 240.00 219.49 239.50 222.56 240.00 225.00 Z"/>
</g>
<g fill="None" fill-opacity="0.0" stroke="#84A6B4" stroke-opacity="1.00" stroke-width="0.3"><path d="
M 223.00 266.00 
C 223.81 266.15 224.14 266.86 225.00 267.00
C 258.77 255.74 290.14 233.24 322.00 218.00
C 287.27 229.13 257.15 253.86 223.00 266.00 Z"/>
</g>
<g fill="None" fill-opacity="0.0" stroke="#8CA7AF" stroke-opacity="1.00" stroke-width="0.3"><path d="
M 158.00 228.00 
C 154.17 237.43 167.56 244.39 174.23 247.77 C 180.90 251.15 190.91 257.69 198.00 261.00
C 199.75 255.91 205.38 255.39 209.00 252.00
C 191.84 248.36 175.28 231.95 161.00 227.00
C 159.04 226.65 159.84 226.07 158.00 228.00 Z"/>
</g>
<g fill="None" fill-opacity="0.0" stroke="#577583" stroke-opacity="1.00" stroke-width="0.3"><path d="
M 225.00 267.00 
C 224.14 266.86 223.81 266.15 223.00 266.00
C 218.58 265.20 214.00 267.59 209.67 265.33 C 205.35 263.07 202.37 263.05 198.00 261.00
C 190.91 257.69 180.90 251.15 174.23 247.77 C 167.56 244.39 154.17 237.43 158.00 228.00
C 150.34 236.03 163.20 245.04 170.92 249.08 C 178.65 253.11 187.68 256.74 195.75 262.25 C 203.83 267.75 215.20 270.27 225.00 267.00 Z"/>
</g>
<g fill="None" fill-opacity="0.0" stroke="#CADDE1" stroke-opacity="1.00" stroke-width="0.3"><path d="
M 350.00 239.00 
C 352.13 239.53 356.50 238.72 359.02 237.02 C 361.55 235.33 366.36 242.17 367.00 240.00
C 366.01 230.12 354.53 236.65 350.00 239.00 Z"/>
</g>
<g fill="None" fill-opacity="0.0" stroke="#7D9EA6" stroke-opacity="1.00" stroke-width="0.3"><path d="
M 350.00 239.00 
C 349.67 239.17 349.19 239.68 349.00 240.00
C 344.66 247.33 331.60 247.65 324.78 252.78 C 317.95 257.90 307.78 260.87 299.92 264.92 C 292.07 268.98 283.85 273.81 275.77 277.77 C 267.69 281.73 258.94 285.61 250.92 289.92 C 242.91 294.24 233.94 300.02 226.00 301.00
C 223.52 301.71 221.73 301.90 219.00 302.00
C 219.02 302.00 219.00 303.00 219.00 303.00
C 219.63 303.89 219.97 303.19 219.00 304.00
C 215.42 306.99 205.16 306.08 204.00 313.00
C 201.69 314.78 196.28 308.48 198.00 313.00
C 203.49 315.74 209.72 317.90 216.00 318.00
C 225.41 318.15 234.13 313.16 242.08 309.08 C 250.02 304.99 257.21 300.74 265.23 297.23 C 273.25 293.71 280.88 289.32 288.69 285.69 C 296.51 282.07 304.55 277.83 312.08 274.08 C 319.62 270.34 328.11 265.85 335.69 262.70 C 343.28 259.54 352.32 251.50 358.00 254.00
C 362.03 251.32 367.52 245.14 367.00 240.00
C 366.36 242.17 361.55 235.33 359.02 237.02 C 356.50 238.72 352.13 239.53 350.00 239.00 Z"/>
</g>
<g fill="None" fill-opacity="0.0" stroke="#BBCFD4" stroke-opacity="1.00" stroke-width="0.3"><path d="
M 226.00 301.00 
C 233.94 300.02 242.91 294.24 250.92 289.92 C 258.94 285.61 267.69 281.73 275.77 277.77 C 283.85 273.81 292.07 268.98 299.92 264.92 C 307.78 260.87 317.95 257.90 324.78 252.78 C 331.60 247.65 344.66 247.33 349.00 240.00
C 327.27 245.86 308.39 262.59 287.08 270.08 C 265.76 277.57 247.75 294.76 226.00 301.00 Z"/>
</g>
<g fill="None" fill-opacity="0.0" stroke="#2499C6" stroke-opacity="1.00" stroke-width="0.3"><path d="
M 267.00 270.00 
C 260.10 273.30 253.10 279.15 245.32 281.32 C 237.54 283.50 231.55 291.33 224.00 293.00
C 225.26 293.00 226.76 293.22 228.00 293.00
C 254.52 279.44 282.51 266.82 308.00 252.00
C 294.23 256.35 280.22 263.68 267.00 270.00 Z"/>
</g>
<g fill="None" fill-opacity="0.0" stroke="#507385" stroke-opacity="1.00" stroke-width="0.3"><path d="
M 216.00 318.00 
C 217.57 318.81 218.04 320.37 216.00 321.00
C 233.07 321.00 249.51 306.23 264.78 299.78 C 280.04 293.32 296.92 284.50 311.77 276.77 C 326.62 269.04 344.17 263.20 358.00 254.00
C 352.32 251.50 343.28 259.54 335.69 262.70 C 328.11 265.85 319.62 270.34 312.08 274.08 C 304.55 277.83 296.51 282.07 288.69 285.69 C 280.88 289.32 273.25 293.71 265.23 297.23 C 257.21 300.74 250.02 304.99 242.08 309.08 C 234.13 313.16 225.41 318.15 216.00 318.00 Z"/>
</g>
<g fill="None" fill-opacity="0.0" stroke="#1A6C98" stroke-opacity="1.00" stroke-width="0.3"><path d="
M 228.00 293.00 
C 226.76 293.22 225.26 293.00 224.00 293.00
C 213.86 293.00 205.57 292.25 197.00 287.00
C 193.21 284.68 189.72 282.10 186.00 280.00
C 175.44 274.05 157.60 269.83 158.00 255.00
C 171.62 258.09 183.79 267.52 196.00 274.00
C 200.02 275.08 203.86 276.56 207.00 277.00
C 204.37 276.18 201.48 275.32 199.00 274.00
C 193.00 270.79 182.22 266.08 178.00 261.00
C 177.77 260.72 177.33 260.17 177.00 260.00
C 173.40 260.93 167.57 256.06 166.00 255.00
C 149.47 248.11 156.89 269.97 167.75 273.25 C 178.61 276.52 184.74 283.70 194.92 289.08 C 205.11 294.45 216.65 298.80 228.00 293.00 Z"/>
</g>
<g fill="None" fill-opacity="0.0" stroke="#1C81B4" stroke-opacity="1.00" stroke-width="0.3"><path d="
M 186.00 280.00 
C 185.23 279.21 184.53 277.93 184.00 277.00
C 187.62 275.07 191.73 271.23 196.00 274.00
C 183.79 267.52 171.62 258.09 158.00 255.00
C 157.60 269.83 175.44 274.05 186.00 280.00 Z"/>
</g>
<g fill="None" fill-opacity="0.0" stroke="#498CB0" stroke-opacity="1.00" stroke-width="0.3"><path d="
M 177.00 260.00 
C 173.37 258.12 169.68 256.53 166.00 255.00
C 167.57 256.06 173.40 260.93 177.00 260.00 Z"/>
</g>
<g fill="None" fill-opacity="0.0" stroke="#3CCAF2" stroke-opacity="1.00" stroke-width="0.3"><path d="
M 240.00 268.00 
C 228.05 275.40 213.12 280.08 200.00 273.00
C 199.69 272.96 199.06 274.02 199.00 274.00
C 201.48 275.32 204.37 276.18 207.00 277.00
C 208.97 277.61 211.59 277.79 213.00 279.00
C 206.73 276.87 202.74 284.14 197.00 281.00
C 195.38 283.19 194.95 285.03 197.00 287.00
C 205.57 292.25 213.86 293.00 224.00 293.00
C 231.55 291.33 237.54 283.50 245.32 281.32 C 253.10 279.15 260.10 273.30 267.00 270.00
C 265.25 269.61 264.70 267.57 265.00 266.00
C 267.87 267.09 269.47 262.35 272.00 265.00
C 271.76 262.52 270.26 260.44 270.00 258.00
C 265.52 259.83 260.89 260.08 255.25 262.25 C 249.60 264.41 244.59 266.40 240.00 268.00 Z"/>
</g>
<g fill="None" fill-opacity="0.0" stroke="#71B2D8" stroke-opacity="1.00" stroke-width="0.3"><path d="
M 344.00 268.00 
C 349.34 266.13 356.96 261.76 364.00 262.00
C 364.15 263.41 364.65 265.34 366.00 266.00
C 365.43 253.81 348.88 265.31 344.00 268.00 Z"/>
</g>
<g fill="None" fill-opacity="0.0" stroke="#4A8BAD" stroke-opacity="1.00" stroke-width="0.3"><path d="
M 199.00 274.00 
C 199.06 274.02 199.69 272.96 200.00 273.00
C 192.83 269.13 185.45 264.67 178.00 261.00
C 182.22 266.08 193.00 270.79 199.00 274.00 Z"/>
</g>
<g fill="None" fill-opacity="0.0" stroke="#2D8DCB" stroke-opacity="1.00" stroke-width="0.3"><path d="
M 344.00 268.00 
C 333.93 273.55 323.36 278.16 313.00 283.00
C 315.35 282.29 320.70 281.64 324.00 280.00
C 322.95 282.85 326.88 287.68 320.00 287.00
C 323.13 290.45 316.41 293.17 319.00 296.00
C 326.92 291.59 336.42 288.41 343.75 283.75 C 351.09 279.10 361.97 278.13 366.00 269.00
C 366.12 268.07 366.04 266.93 366.00 266.00
C 364.65 265.34 364.15 263.41 364.00 262.00
C 356.96 261.76 349.34 266.13 344.00 268.00 Z"/>
</g>
<g fill="None" fill-opacity="0.0" stroke="#256697" stroke-opacity="1.00" stroke-width="0.3"><path d="
M 319.00 296.00 
C 313.20 299.23 307.02 303.05 300.00 304.00
C 303.66 298.90 299.19 292.51 305.00 290.00
C 297.45 289.64 289.00 298.81 282.00 299.00
C 281.72 299.23 281.19 299.68 281.00 300.00
C 278.79 303.73 273.43 303.22 271.00 304.00
C 269.88 304.56 268.73 305.06 268.00 306.00
C 267.53 306.61 267.38 307.38 267.00 308.00
C 265.18 311.00 262.50 313.79 260.00 316.00
C 265.12 317.97 259.50 320.88 258.00 325.00
C 276.58 319.12 293.46 308.32 312.00 302.00
C 321.32 298.30 333.09 292.22 341.77 287.77 C 350.45 283.32 364.48 280.48 366.00 269.00
C 361.97 278.13 351.09 279.10 343.75 283.75 C 336.42 288.41 326.92 291.59 319.00 296.00 Z"/>
</g>
<g fill="None" fill-opacity="0.0" stroke="#22A0D5" stroke-opacity="1.00" stroke-width="0.3"><path d="
M 186.00 280.00 
C 189.72 282.10 193.21 284.68 197.00 287.00
C 194.95 285.03 195.38 283.19 197.00 281.00
C 202.74 284.14 206.73 276.87 213.00 279.00
C 211.59 277.79 208.97 277.61 207.00 277.00
C 203.86 276.56 200.02 275.08 196.00 274.00
C 191.73 271.23 187.62 275.07 184.00 277.00
C 184.53 277.93 185.23 279.21 186.00 280.00 Z"/>
</g>
<g fill="None" fill-opacity="0.0" stroke="#416173" stroke-opacity="1.00" stroke-width="0.3"><path d="
M 216.00 321.00 
C 218.04 320.37 217.57 318.81 216.00 318.00
C 209.72 317.90 203.49 315.74 198.00 313.00
C 194.90 311.45 192.60 308.34 189.00 308.00
C 191.18 305.91 192.89 305.55 191.00 303.00
C 195.92 297.36 203.55 306.41 209.00 303.00
C 200.41 304.02 191.70 295.73 184.77 292.23 C 177.84 288.73 169.18 281.65 164.00 280.00
C 162.36 277.25 159.30 280.68 157.00 280.00
C 156.68 287.03 161.56 292.08 166.00 297.00
C 163.23 297.24 162.35 293.85 160.00 293.00
C 165.80 301.31 176.87 304.10 185.77 309.23 C 194.67 314.36 205.40 321.00 216.00 321.00 Z"/>
</g>
<g fill="None" fill-opacity="0.0" stroke="#7D95A3" stroke-opacity="1.00" stroke-width="0.3"><path d="
M 209.00 303.00 
C 209.29 302.78 209.77 302.05 210.00 302.00
C 192.47 300.81 180.72 283.48 164.00 280.00
C 169.18 281.65 177.84 288.73 184.77 292.23 C 191.70 295.73 200.41 304.02 209.00 303.00 Z"/>
</g>
<g fill="None" fill-opacity="0.0" stroke="#327DB4" stroke-opacity="1.00" stroke-width="0.3"><path d="
M 313.00 283.00 
C 303.24 287.56 290.15 292.20 282.00 299.00
C 289.00 298.81 297.45 289.64 305.00 290.00
C 299.19 292.51 303.66 298.90 300.00 304.00
C 307.02 303.05 313.20 299.23 319.00 296.00
C 316.41 293.17 323.13 290.45 320.00 287.00
C 326.88 287.68 322.95 282.85 324.00 280.00
C 320.70 281.64 315.35 282.29 313.00 283.00 Z"/>
</g>
<g fill="None" fill-opacity="0.0" stroke="#315F7D" stroke-opacity="1.00" stroke-width="0.3"><path d="
M 360.00 287.00 
C 359.34 287.24 352.13 291.71 347.92 292.92 C 343.72 294.14 338.75 298.15 335.00 300.00
C 333.33 301.78 333.19 301.16 335.00 303.00
C 331.52 301.74 328.99 307.92 327.00 304.00
C 326.86 306.33 324.39 308.94 322.00 309.00
C 322.27 312.01 322.45 312.68 325.00 314.00
C 323.34 315.74 319.77 315.98 320.00 319.00
C 329.20 314.90 338.04 309.48 348.00 308.00
C 354.51 306.65 358.40 303.11 361.75 297.75 C 365.09 292.38 368.88 285.34 360.00 287.00 Z"/>
</g>
<g fill="None" fill-opacity="0.0" stroke="#607E90" stroke-opacity="1.00" stroke-width="0.3"><path d="
M 234.00 348.00 
C 250.66 344.00 266.96 332.42 283.69 324.69 C 300.43 316.97 318.46 308.18 335.00 300.00
C 338.75 298.15 343.72 294.14 347.92 292.92 C 352.13 291.71 359.34 287.24 360.00 287.00
C 337.45 291.20 317.53 308.92 296.23 317.23 C 274.93 325.53 255.05 338.70 234.00 348.00 Z"/>
</g>
<g fill="None" fill-opacity="0.0" stroke="#5682A0" stroke-opacity="1.00" stroke-width="0.3"><path d="
M 271.00 304.00 
C 273.43 303.22 278.79 303.73 281.00 300.00
C 277.81 301.57 274.26 302.36 271.00 304.00 Z"/>
</g>
<g fill="None" fill-opacity="0.0" stroke="#254963" stroke-opacity="1.00" stroke-width="0.3"><path d="
M 234.00 348.00 
C 213.09 359.58 187.53 347.08 172.00 332.00
C 188.23 332.85 206.73 350.70 223.92 345.92 C 241.12 341.15 252.53 330.88 268.32 324.32 C 284.11 317.77 297.21 309.98 312.00 302.00
C 293.46 308.32 276.58 319.12 258.00 325.00
C 259.50 320.88 265.12 317.97 260.00 316.00
C 262.50 313.79 265.18 311.00 267.00 308.00
C 259.45 313.73 249.73 315.37 241.32 320.32 C 232.92 325.27 221.48 329.49 211.00 329.00
C 212.33 326.50 216.74 329.57 218.00 327.00
C 195.68 328.63 178.43 309.28 158.00 304.00
C 157.53 306.52 159.03 310.23 157.00 312.00
C 156.53 309.48 158.03 305.77 156.00 304.00
C 156.23 312.60 155.25 322.12 157.00 330.00
C 158.70 334.50 165.33 346.56 169.00 351.00
C 169.70 352.98 172.17 353.73 174.00 354.00
C 173.57 351.74 168.79 350.46 171.00 348.00
C 178.79 353.85 188.38 360.52 197.75 364.25 C 207.13 367.97 223.55 368.02 233.98 364.98 C 244.40 361.93 253.07 355.03 262.92 350.92 C 272.78 346.82 282.10 341.17 291.77 336.77 C 301.44 332.37 311.65 327.65 320.92 322.92 C 330.19 318.18 338.55 312.03 348.00 308.00
C 338.04 309.48 329.20 314.90 320.00 319.00
C 319.77 315.98 323.34 315.74 325.00 314.00
C 322.45 312.68 322.27 312.01 322.00 309.00
C 324.39 308.94 326.86 306.33 327.00 304.00
C 328.99 307.92 331.52 301.74 335.00 303.00
C 333.19 301.16 333.33 301.78 335.00 300.00
C 318.46 308.18 300.43 316.97 283.69 324.69 C 266.96 332.42 250.66 344.00 234.00 348.00 Z"/>
</g>
<g fill="None" fill-opacity="0.0" stroke="#5D7F8E" stroke-opacity="1.00" stroke-width="0.3"><path d="
M 198.00 313.00 
C 196.28 308.48 201.69 314.78 204.00 313.00
C 205.16 306.08 215.42 306.99 219.00 304.00
C 216.54 304.71 213.51 303.46 211.00 304.00
C 212.77 301.97 216.48 303.47 219.00 303.00
C 219.00 303.00 219.02 302.00 219.00 302.00
C 216.06 302.11 212.94 302.20 210.00 302.00
C 209.77 302.05 209.29 302.78 209.00 303.00
C 203.55 306.41 195.92 297.36 191.00 303.00
C 192.89 305.55 191.18 305.91 189.00 308.00
C 192.60 308.34 194.90 311.45 198.00 313.00 Z"/>
</g>
<g fill="None" fill-opacity="0.0" stroke="#B7CACF" stroke-opacity="1.00" stroke-width="0.3"><path d="
M 219.00 304.00 
C 219.97 303.19 219.63 303.89 219.00 303.00
C 216.48 303.47 212.77 301.97 211.00 304.00
C 213.51 303.46 216.54 304.71 219.00 304.00 Z"/>
</g>
<g fill="None" fill-opacity="0.0" stroke="#4E728B" stroke-opacity="1.00" stroke-width="0.3"><path d="
M 218.00 327.00 
C 216.74 329.57 212.33 326.50 211.00 329.00
C 221.48 329.49 232.92 325.27 241.32 320.32 C 249.73 315.37 259.45 313.73 267.00 308.00
C 267.38 307.38 267.53 306.61 268.00 306.00
C 252.64 314.48 235.22 324.20 218.00 327.00 Z"/>
</g>
<g fill="None" fill-opacity="0.0" stroke="#3B5162" stroke-opacity="1.00" stroke-width="0.3"><path d="
M 335.00 323.00 
C 334.78 323.12 335.00 324.00 335.00 324.00
C 340.84 321.62 348.55 318.91 352.00 314.00
C 346.26 316.90 340.94 320.43 335.00 323.00 Z"/>
</g>
<g fill="None" fill-opacity="0.0" stroke="#4C6474" stroke-opacity="1.00" stroke-width="0.3"><path d="
M 335.00 324.00 
C 335.00 324.00 334.78 323.12 335.00 323.00
C 315.88 331.41 299.45 342.91 280.07 351.07 C 260.70 359.23 241.97 373.36 220.00 374.00
C 241.49 376.76 260.76 359.81 280.31 352.31 C 299.85 344.80 315.92 332.24 335.00 324.00 Z"/>
</g>
<g fill="None" fill-opacity="0.0" stroke="#7991A2" stroke-opacity="1.00" stroke-width="0.3"><path d="
M 157.00 330.00 
C 158.78 338.02 162.45 345.62 169.00 351.00
C 165.33 346.56 158.70 334.50 157.00 330.00 Z"/>
</g>
<g fill="None" fill-opacity="0.0" stroke="#3D515B" stroke-opacity="0.69" stroke-width="0.3"><path d="
M 281.00 361.00 
C 285.87 359.43 291.90 355.29 297.00 352.00
C 290.87 354.65 286.38 357.57 281.00 361.00 Z"/>
</g>
<g fill="#000000" fill-opacity="0.00" stroke="None">
<path d="
M 0.00 500.00 
L 500.00 500.00
L 500.00 0.00
L 0.00 0.00
L 0.00 500.00
M 271.00 97.00 
C 271.32 97.24 272.00 97.00 272.00 97.00
C 276.08 98.99 278.60 104.21 280.00 108.00
C 280.71 109.93 281.44 111.76 281.00 114.00
C 290.34 111.75 298.75 115.29 308.00 116.00
C 310.03 115.91 312.92 115.75 315.00 116.00
C 327.92 116.23 340.74 125.24 352.00 131.00
C 354.41 132.23 356.85 133.84 359.00 135.00
C 368.93 138.94 372.80 148.76 373.00 159.00
C 375.53 179.89 374.35 203.27 374.00 225.00 C 373.65 246.73 376.38 271.19 373.00 292.00
C 372.06 309.35 356.74 322.14 341.92 328.92 C 327.09 335.70 311.90 345.57 297.00 352.00
C 291.90 355.29 285.87 359.43 281.00 361.00
C 262.33 367.03 240.40 387.14 219.00 382.00 C 197.60 376.86 180.31 370.57 162.25 355.75 C 144.18 340.94 148.09 310.51 148.00 287.00 C 147.91 263.49 147.96 228.38 148.00 204.00 C 148.04 179.62 173.85 172.10 192.00 165.00
C 192.91 152.93 190.00 141.25 193.00 130.00
C 195.53 118.39 201.28 111.28 209.00 104.00
C 212.02 101.15 214.78 99.03 219.00 97.00
C 220.98 95.82 221.88 95.68 224.00 95.00
C 230.41 91.83 240.08 86.54 248.00 88.00 C 255.92 89.46 267.47 89.13 271.00 97.00 Z"/>
</g>
<g fill="#A6BAC2" fill-opacity="0.26" stroke="None">
<path d="
M 224.00 95.00 
C 240.48 89.68 255.73 85.33 271.00 97.00
C 267.47 89.13 255.92 89.46 248.00 88.00 C 240.08 86.54 230.41 91.83 224.00 95.00 Z"/>
</g>
<g fill="#182D3C" fill-opacity="0.98" stroke="None">
<path d="
M 224.00 95.00 
C 221.88 95.68 220.98 95.82 219.00 97.00
C 215.81 98.89 211.87 101.35 209.00 104.00
C 201.43 111.00 196.15 120.92 193.00 130.00
C 190.00 141.25 192.91 152.93 192.00 165.00
C 173.85 172.10 148.04 179.62 148.00 204.00 C 147.96 228.38 147.91 263.49 148.00 287.00 C 148.09 310.51 144.18 340.94 162.25 355.75 C 180.31 370.57 197.60 376.86 219.00 382.00 C 240.40 387.14 262.33 367.03 281.00 361.00
C 286.38 357.57 290.87 354.65 297.00 352.00
C 311.90 345.57 327.09 335.70 341.92 328.92 C 356.74 322.14 372.06 309.35 373.00 292.00
C 375.38 248.14 373.88 202.93 373.00 159.00
C 372.80 148.76 368.93 138.94 359.00 135.00
C 356.19 133.88 354.36 132.51 352.00 131.00
C 340.74 125.24 327.92 116.23 315.00 116.00
C 312.67 115.96 310.33 116.12 308.00 116.00
C 298.75 115.29 290.34 111.75 281.00 114.00
C 281.44 111.76 280.71 109.93 280.00 108.00
C 278.44 104.66 274.52 99.89 272.00 97.00
C 272.00 97.00 271.32 97.24 271.00 97.00
C 255.73 85.33 240.48 89.68 224.00 95.00
M 271.00 108.00 
C 274.30 113.79 275.13 118.44 267.00 120.00
C 266.19 120.16 264.47 121.86 263.00 121.00
C 263.05 117.54 259.50 115.72 258.00 113.00
C 256.87 112.48 254.84 111.20 254.00 111.00
C 249.10 110.55 244.56 111.55 240.00 112.00
C 229.34 115.79 218.48 120.70 213.69 132.69 C 208.91 144.69 212.93 162.60 212.00 176.00
C 207.88 176.39 202.91 182.92 200.00 179.00
C 197.60 171.98 200.73 161.43 200.00 154.00 C 199.27 146.57 199.06 136.96 201.00 130.00
C 202.00 126.41 203.72 123.67 206.00 121.00
C 217.47 101.69 256.19 81.99 271.00 108.00
M 222.00 151.00 
C 220.96 151.40 220.10 154.35 218.00 153.00
C 218.65 148.17 216.69 142.01 219.00 138.00
C 223.04 123.73 239.23 117.58 252.00 117.00
C 252.38 120.36 256.87 122.09 256.00 126.00
C 243.16 133.42 237.93 149.08 222.00 151.00
M 295.00 121.00 
C 305.50 121.71 319.19 131.26 318.00 144.00 C 316.81 156.75 320.65 176.97 318.00 190.00
C 316.94 195.21 311.30 200.30 307.00 196.00
C 300.55 190.31 306.95 173.35 305.00 165.00 C 303.05 156.65 307.98 142.45 298.92 137.08 C 289.86 131.71 281.33 137.34 272.92 140.92 C 264.52 144.51 260.68 148.54 256.08 157.08 C 251.47 165.61 253.93 177.78 253.00 188.00 C 252.07 198.22 255.08 211.78 253.00 222.00
C 251.49 229.40 242.81 233.11 240.00 225.00
C 235.41 211.76 239.00 190.54 239.00 176.00
C 239.00 163.12 240.83 145.97 251.75 137.75 C 262.67 129.54 273.35 121.74 287.00 121.00
C 289.88 120.53 292.16 120.49 295.00 121.00
M 317.00 123.00 
C 321.83 124.08 327.87 127.68 332.23 129.77 C 336.59 131.87 344.59 134.31 348.08 136.92 C 351.56 139.54 361.81 141.14 362.00 146.00
C 362.07 147.63 360.02 149.16 359.00 150.00
C 353.86 154.24 345.43 152.54 340.31 148.69 C 335.18 144.85 327.83 143.95 324.00 139.00
C 320.25 134.16 320.61 125.93 314.00 123.00
C 314.22 121.72 316.81 121.58 317.00 123.00
M 296.00 147.00 
C 299.61 156.78 297.29 169.14 298.00 180.00
C 287.11 186.30 275.65 191.08 264.75 196.75 C 253.85 202.43 260.34 181.60 260.00 178.00
C 261.65 172.58 264.18 172.29 269.00 170.00
C 269.56 169.73 270.22 169.31 271.00 169.00
C 275.96 167.02 282.81 169.65 283.99 163.99 C 285.18 158.33 281.68 148.60 285.00 144.00
C 288.48 139.18 294.40 142.66 296.00 147.00
M 276.00 150.00 
C 277.16 156.50 266.97 166.63 266.00 157.00
C 265.40 151.05 272.20 149.66 276.00 147.00
C 276.00 148.00 276.00 149.00 276.00 150.00
M 342.00 156.00 
C 338.83 161.61 335.35 162.14 328.97 164.97 C 322.60 167.81 323.60 155.08 324.00 150.00
C 330.62 149.92 335.76 154.70 342.00 156.00
M 219.00 163.00 
C 219.00 162.50 219.00 162.00 219.00 162.00
C 220.30 159.12 226.93 155.51 230.00 156.00
C 230.93 154.69 232.44 155.05 234.00 155.00
C 233.48 160.01 231.42 164.68 232.00 170.00
C 227.76 172.00 223.68 174.42 219.00 175.00
C 219.00 171.00 219.00 167.00 219.00 163.00
M 326.00 191.00 
C 322.84 182.12 324.09 172.31 332.68 169.68 C 341.26 167.05 345.39 162.86 353.23 159.23 C 361.07 155.60 372.73 154.83 364.69 167.69 C 356.66 180.55 338.59 183.40 326.00 191.00
M 194.00 183.00 
C 194.00 183.50 194.12 184.53 194.00 185.00
C 191.20 195.72 169.73 201.84 163.00 194.00
C 161.13 191.82 160.15 192.63 161.00 190.00
C 163.54 182.17 172.10 182.94 179.08 178.08 C 186.07 173.22 194.00 170.44 194.00 183.00
M 206.00 207.00 
C 194.83 210.30 193.55 212.33 183.00 206.00
C 181.82 205.48 180.64 205.08 180.00 204.00
C 178.66 201.75 191.02 197.47 194.69 195.69 C 198.37 193.92 208.22 188.35 213.00 188.00
C 214.32 185.56 217.75 185.19 220.00 184.00
C 221.26 183.34 222.56 182.62 224.00 182.00
C 226.34 180.99 228.72 178.83 232.00 180.00
C 232.00 183.67 232.00 187.33 232.00 191.00
C 223.94 196.40 215.88 204.48 206.00 207.00
M 322.00 218.00 
C 290.14 233.24 258.77 255.74 225.00 267.00
C 215.20 270.27 203.83 267.75 195.75 262.25 C 187.68 256.74 178.65 253.11 170.92 249.08 C 163.20 245.04 150.34 236.03 158.00 228.00
C 159.84 226.07 159.04 226.65 161.00 227.00
C 172.36 229.00 182.51 237.95 193.08 242.92 C 203.65 247.88 217.77 254.38 229.07 247.07 C 240.38 239.76 249.44 236.71 260.69 230.69 C 271.95 224.68 281.21 220.29 292.69 214.69 C 304.18 209.10 311.97 203.32 324.25 198.25 C 336.52 193.17 343.72 189.53 357.08 183.08 C 370.44 176.62 367.75 199.00 354.77 202.77 C 341.79 206.54 334.49 214.00 322.00 218.00
M 299.00 194.00 
C 299.16 196.77 298.78 198.88 298.00 201.00
C 293.31 213.70 269.68 216.18 260.00 223.00
C 259.83 216.15 258.14 204.56 265.23 202.23 C 272.32 199.89 277.27 195.91 283.23 193.23 C 289.19 190.55 299.38 183.43 299.00 194.00
M 232.00 197.00 
C 232.00 202.33 232.00 207.67 232.00 213.00
C 222.21 217.12 211.13 223.95 201.00 216.00
C 211.25 210.07 222.71 204.23 232.00 197.00
M 222.00 243.00 
C 214.65 245.05 214.88 244.65 206.78 242.22 C 198.68 239.80 189.14 233.09 181.77 229.23 C 174.40 225.37 174.92 225.81 169.77 223.23 C 164.62 220.65 162.16 217.93 158.75 215.25 C 155.35 212.57 154.34 200.77 157.00 200.00
C 162.13 199.01 168.71 207.16 174.23 208.77 C 179.75 210.38 186.05 215.53 192.08 217.92 C 198.10 220.32 203.60 224.68 211.01 224.99 C 218.42 225.31 226.42 223.19 233.00 220.00
C 236.83 229.64 233.37 241.71 222.00 243.00
M 308.00 252.00 
C 282.51 266.82 254.52 279.44 228.00 293.00
C 216.65 298.80 205.11 294.45 194.92 289.08 C 184.74 283.70 178.61 276.52 167.75 273.25 C 156.89 269.97 149.47 248.11 166.00 255.00
C 169.68 256.53 173.37 258.12 177.00 260.00
C 177.33 260.17 177.77 260.72 178.00 261.00
C 185.45 264.67 192.83 269.13 200.00 273.00
C 213.12 280.08 228.05 275.40 240.00 268.00
C 249.48 262.13 261.77 256.98 271.70 251.70 C 281.62 246.41 293.30 239.53 303.23 235.23 C 313.16 230.93 326.36 222.49 335.23 219.23 C 344.10 215.97 362.98 200.96 365.99 214.01 C 369.00 227.06 348.81 231.58 340.31 236.31 C 331.80 241.03 317.05 246.74 308.00 252.00
M 367.00 240.00 
C 367.52 245.14 362.03 251.32 358.00 254.00
C 344.17 263.20 326.62 269.04 311.77 276.77 C 296.92 284.50 280.04 293.32 264.78 299.78 C 249.51 306.23 233.07 321.00 216.00 321.00
C 205.40 321.00 194.67 314.36 185.77 309.23 C 176.87 304.10 165.80 301.31 160.00 293.00
C 162.35 293.85 163.23 297.24 166.00 297.00
C 161.56 292.08 156.68 287.03 157.00 280.00
C 159.30 280.68 162.36 277.25 164.00 280.00
C 180.72 283.48 192.47 300.81 210.00 302.00
C 212.94 302.20 216.06 302.11 219.00 302.00
C 221.73 301.90 223.52 301.71 226.00 301.00
C 247.75 294.76 265.76 277.57 287.08 270.08 C 308.39 262.59 327.27 245.86 349.00 240.00
C 349.19 239.68 349.67 239.17 350.00 239.00
C 354.53 236.65 366.01 230.12 367.00 240.00
M 366.00 266.00 
C 366.04 266.93 366.12 268.07 366.00 269.00
C 364.48 280.48 350.45 283.32 341.77 287.77 C 333.09 292.22 321.32 298.30 312.00 302.00
C 297.21 309.98 284.11 317.77 268.32 324.32 C 252.53 330.88 241.12 341.15 223.92 345.92 C 206.73 350.70 188.23 332.85 172.00 332.00
C 187.53 347.08 213.09 359.58 234.00 348.00
C 255.05 338.70 274.93 325.53 296.23 317.23 C 317.53 308.92 337.45 291.20 360.00 287.00
C 368.88 285.34 365.09 292.38 361.75 297.75 C 358.40 303.11 354.51 306.65 348.00 308.00
C 338.55 312.03 330.19 318.18 320.92 322.92 C 311.65 327.65 301.44 332.37 291.77 336.77 C 282.10 341.17 272.78 346.82 262.92 350.92 C 253.07 355.03 244.40 361.93 233.98 364.98 C 223.55 368.02 207.13 367.97 197.75 364.25 C 188.38 360.52 178.79 353.85 171.00 348.00
C 168.79 350.46 173.57 351.74 174.00 354.00
C 172.17 353.73 169.70 352.98 169.00 351.00
C 162.45 345.62 158.78 338.02 157.00 330.00
C 155.25 322.12 156.23 312.60 156.00 304.00
C 158.03 305.77 156.53 309.48 157.00 312.00
C 159.03 310.23 157.53 306.52 158.00 304.00
C 178.43 309.28 195.68 328.63 218.00 327.00
C 235.22 324.20 252.64 314.48 268.00 306.00
C 268.73 305.06 269.88 304.56 271.00 304.00
C 274.26 302.36 277.81 301.57 281.00 300.00
C 281.19 299.68 281.72 299.23 282.00 299.00
C 290.15 292.20 303.24 287.56 313.00 283.00
C 323.36 278.16 333.93 273.55 344.00 268.00
C 348.88 265.31 365.43 253.81 366.00 266.00
M 335.00 324.00 
C 315.92 332.24 299.85 344.80 280.31 352.31 C 260.76 359.81 241.49 376.76 220.00 374.00
C 241.97 373.36 260.70 359.23 280.07 351.07 C 299.45 342.91 315.88 331.41 335.00 323.00
C 340.94 320.43 346.26 316.90 352.00 314.00
C 348.55 318.91 340.84 321.62 335.00 324.00 Z"/>
</g>
<g fill="#A2DEE9" fill-opacity="1.00" stroke="None">
<path d="
M 206.00 121.00 
C 214.76 110.75 228.42 100.07 242.00 98.00
C 245.00 97.54 248.97 97.72 252.00 98.00
C 258.44 98.59 266.73 102.81 271.00 108.00
C 256.19 81.99 217.47 101.69 206.00 121.00 Z"/>
</g>
<g fill="#B5C0C2" fill-opacity="0.11" stroke="None">
<path d="
M 209.00 104.00 
C 211.87 101.35 215.81 98.89 219.00 97.00
C 214.78 99.03 212.02 101.15 209.00 104.00 Z"/>
</g>
<g fill="#7F9DA8" fill-opacity="0.15" stroke="None">
<path d="
M 280.00 108.00 
C 278.60 104.21 276.08 98.99 272.00 97.00
C 274.52 99.89 278.44 104.66 280.00 108.00 Z"/>
</g>
<g fill="#44C1DC" fill-opacity="1.00" stroke="None">
<path d="
M 206.00 121.00 
C 203.72 123.67 202.00 126.41 201.00 130.00
C 204.64 130.66 210.70 130.92 214.00 128.00
C 219.07 118.81 227.02 115.57 236.00 112.00
C 242.01 109.61 249.47 107.56 254.00 106.00
C 249.99 103.39 245.46 100.75 242.00 98.00
C 228.42 100.07 214.76 110.75 206.00 121.00 Z"/>
</g>
<g fill="#34A8C9" fill-opacity="1.00" stroke="None">
<path d="
M 236.00 112.00 
C 237.31 111.84 238.68 112.13 240.00 112.00
C 244.56 111.55 249.10 110.55 254.00 111.00
C 258.60 111.42 260.97 114.67 265.00 114.00
C 265.78 110.09 259.63 108.00 264.00 105.00
C 261.59 100.47 254.58 102.32 252.00 98.00
C 248.97 97.72 245.00 97.54 242.00 98.00
C 245.46 100.75 249.99 103.39 254.00 106.00
C 249.47 107.56 242.01 109.61 236.00 112.00 Z"/>
</g>
<g fill="#2F8EB4" fill-opacity="1.00" stroke="None">
<path d="
M 254.00 111.00 
C 254.84 111.20 256.87 112.48 258.00 113.00
C 261.80 114.75 263.53 119.60 267.00 120.00
C 275.13 118.44 274.30 113.79 271.00 108.00
C 266.73 102.81 258.44 98.59 252.00 98.00
C 254.58 102.32 261.59 100.47 264.00 105.00
C 259.63 108.00 265.78 110.09 265.00 114.00
C 260.97 114.67 258.60 111.42 254.00 111.00 Z"/>
</g>
<g fill="#687A84" fill-opacity="0.26" stroke="None">
<path d="
M 193.00 130.00 
C 196.15 120.92 201.43 111.00 209.00 104.00
C 201.28 111.28 195.53 118.39 193.00 130.00 Z"/>
</g>
<g fill="#2B7093" fill-opacity="1.00" stroke="None">
<path d="
M 214.00 128.00 
C 208.33 138.28 210.21 152.48 203.75 160.75 C 197.29 169.03 206.06 171.82 200.00 179.00
C 202.91 182.92 207.88 176.39 212.00 176.00
C 212.93 162.60 208.91 144.69 213.69 132.69 C 218.48 120.70 229.34 115.79 240.00 112.00
C 238.68 112.13 237.31 111.84 236.00 112.00
C 227.02 115.57 219.07 118.81 214.00 128.00 Z"/>
</g>
<g fill="#29657C" fill-opacity="1.00" stroke="None">
<path d="
M 267.00 120.00 
C 263.53 119.60 261.80 114.75 258.00 113.00
C 259.50 115.72 263.05 117.54 263.00 121.00
C 264.47 121.86 266.19 120.16 267.00 120.00 Z"/>
</g>
<g fill="#7F8F9A" fill-opacity="0.07" stroke="None">
<path d="
M 308.00 116.00 
C 310.33 116.12 312.67 115.96 315.00 116.00
C 312.92 115.75 310.03 115.91 308.00 116.00 Z"/>
</g>
<g fill="#000000" fill-opacity="0.00" stroke="None">
<path d="
M 219.00 138.00 
C 218.30 142.56 219.52 147.41 219.00 152.00
C 220.28 152.53 220.86 151.03 222.00 151.00
C 237.93 149.08 243.16 133.42 256.00 126.00
C 256.87 122.09 252.38 120.36 252.00 117.00
C 239.23 117.58 223.04 123.73 219.00 138.00 Z"/>
</g>
<g fill="#848D93" fill-opacity="1.00" stroke="None">
<path d="
M 287.00 121.00 
C 289.60 120.86 292.40 120.82 295.00 121.00
C 292.16 120.49 289.88 120.53 287.00 121.00 Z"/>
</g>
<g fill="#DBE9E7" fill-opacity="1.00" stroke="None">
<path d="
M 239.00 176.00 
C 240.25 188.89 240.00 203.39 240.00 217.00
C 240.27 219.75 241.91 225.95 245.08 226.92 C 248.25 227.89 253.16 221.53 253.00 222.00
C 255.08 211.78 252.07 198.22 253.00 188.00 C 253.93 177.78 251.47 165.61 256.08 157.08 C 260.68 148.54 264.52 144.51 272.92 140.92 C 281.33 137.34 289.86 131.71 298.92 137.08 C 307.98 142.45 303.05 156.65 305.00 165.00 C 306.95 173.35 300.55 190.31 307.00 196.00
C 306.44 195.51 309.87 196.07 310.00 197.00
C 313.76 195.73 313.84 190.17 318.00 190.00
C 320.65 176.97 316.81 156.75 318.00 144.00 C 319.19 131.26 305.50 121.71 295.00 121.00
C 292.40 120.82 289.60 120.86 287.00 121.00
C 273.35 121.74 262.67 129.54 251.75 137.75 C 240.83 145.97 239.00 163.12 239.00 176.00 Z"/>
</g>
<g fill="#3887A6" fill-opacity="1.00" stroke="None">
<path d="
M 324.00 139.00 
C 323.36 137.53 335.03 142.13 339.08 144.92 C 343.12 147.72 353.36 152.87 359.00 150.00
C 360.02 149.16 362.07 147.63 362.00 146.00
C 354.61 142.65 347.71 137.78 340.00 135.00
C 332.21 133.83 324.32 130.48 320.00 126.00
C 319.20 125.60 315.95 122.44 317.00 123.00
C 316.81 121.58 314.22 121.72 314.00 123.00
C 320.61 125.93 320.25 134.16 324.00 139.00 Z"/>
</g>
<g fill="#A5CEDF" fill-opacity="1.00" stroke="None">
<path d="
M 320.00 126.00 
C 326.31 129.16 333.33 132.60 340.00 135.00
C 347.71 137.78 354.61 142.65 362.00 146.00
C 361.81 141.14 351.56 139.54 348.08 136.92 C 344.59 134.31 336.59 131.87 332.23 129.77 C 327.87 127.68 321.83 124.08 317.00 123.00
C 315.95 122.44 319.20 125.60 320.00 126.00 Z"/>
</g>
<g fill="#326D86" fill-opacity="1.00" stroke="None">
<path d="
M 340.00 135.00 
C 333.33 132.60 326.31 129.16 320.00 126.00
C 324.32 130.48 332.21 133.83 340.00 135.00 Z"/>
</g>
<g fill="#449EBF" fill-opacity="1.00" stroke="None">
<path d="
M 201.00 130.00 
C 199.06 136.96 199.27 146.57 200.00 154.00 C 200.73 161.43 197.60 171.98 200.00 179.00
C 206.06 171.82 197.29 169.03 203.75 160.75 C 210.21 152.48 208.33 138.28 214.00 128.00
C 210.70 130.92 204.64 130.66 201.00 130.00 Z"/>
</g>
<g fill="#7B919B" fill-opacity="0.42" stroke="None">
<path d="
M 359.00 135.00 
C 356.85 133.84 354.41 132.23 352.00 131.00
C 354.36 132.51 356.19 133.88 359.00 135.00 Z"/>
</g>
<g fill="#184D6A" fill-opacity="1.00" stroke="None">
<path d="
M 324.00 139.00 
C 327.83 143.95 335.18 144.85 340.31 148.69 C 345.43 152.54 353.86 154.24 359.00 150.00
C 353.36 152.87 343.12 147.72 339.08 144.92 C 335.03 142.13 323.36 137.53 324.00 139.00 Z"/>
</g>
<g fill="#6E7980" fill-opacity="0.32" stroke="None">
<path d="
M 222.00 151.00 
C 220.86 151.03 220.28 152.53 219.00 152.00
C 219.52 147.41 218.30 142.56 219.00 138.00
C 216.69 142.01 218.65 148.17 218.00 153.00
C 220.10 154.35 220.96 151.40 222.00 151.00 Z"/>
</g>
<g fill="#1A5B82" fill-opacity="1.00" stroke="None">
<path d="
M 285.00 144.00 
C 283.41 147.21 286.19 152.59 285.00 156.00
C 290.44 154.95 291.87 147.03 296.00 147.00
C 294.40 142.66 288.48 139.18 285.00 144.00 Z"/>
</g>
<g fill="#194463" fill-opacity="1.00" stroke="None">
<path d="
M 271.00 169.00 
C 280.76 167.76 280.03 179.99 273.70 183.70 C 267.37 187.41 261.52 190.91 260.00 197.00
C 260.00 190.67 260.00 184.33 260.00 178.00
C 260.34 181.60 253.85 202.43 264.75 196.75 C 275.65 191.08 287.11 186.30 298.00 180.00
C 297.29 169.14 299.61 156.78 296.00 147.00
C 291.87 147.03 290.44 154.95 285.00 156.00
C 286.19 152.59 283.41 147.21 285.00 144.00
C 281.68 148.60 285.18 158.33 283.99 163.99 C 282.81 169.65 275.96 167.02 271.00 169.00 Z"/>
</g>
<g fill="#3C7597" fill-opacity="1.00" stroke="None">
<path d="
M 266.00 157.00 
C 266.44 158.09 269.30 158.07 270.00 159.00
C 274.08 157.23 272.60 148.96 276.00 150.00
C 276.00 149.00 276.00 148.00 276.00 147.00
C 272.20 149.66 265.40 151.05 266.00 157.00 Z"/>
</g>
<g fill="#265775" fill-opacity="1.00" stroke="None">
<path d="
M 266.00 157.00 
C 266.97 166.63 277.16 156.50 276.00 150.00
C 272.60 148.96 274.08 157.23 270.00 159.00
C 269.30 158.07 266.44 158.09 266.00 157.00 Z"/>
</g>
<g fill="#185785" fill-opacity="1.00" stroke="None">
<path d="
M 342.00 156.00 
C 335.76 154.70 330.62 149.92 324.00 150.00
C 323.60 155.08 322.60 167.81 328.97 164.97 C 335.35 162.14 338.83 161.61 342.00 156.00 Z"/>
</g>
<g fill="#285A74" fill-opacity="1.00" stroke="None">
<path d="
M 230.00 156.00 
C 231.47 156.23 230.31 156.72 230.00 157.00
C 229.42 163.06 232.27 165.11 226.92 169.92 C 221.56 174.72 220.71 165.32 219.00 163.00
C 219.00 167.00 219.00 171.00 219.00 175.00
C 223.68 174.42 227.76 172.00 232.00 170.00
C 231.42 164.68 233.48 160.01 234.00 155.00
C 232.44 155.05 230.93 154.69 230.00 156.00 Z"/>
</g>
<g fill="#71A6BE" fill-opacity="1.00" stroke="None">
<path d="
M 219.00 162.00 
C 222.00 160.93 227.55 159.17 230.00 157.00
C 230.31 156.72 231.47 156.23 230.00 156.00
C 226.93 155.51 220.30 159.12 219.00 162.00 Z"/>
</g>
<g fill="#D9E8E7" fill-opacity="1.00" stroke="None">
<path d="
M 326.00 191.00 
C 338.59 183.40 356.66 180.55 364.69 167.69 C 372.73 154.83 361.07 155.60 353.23 159.23 C 345.39 162.86 341.26 167.05 332.68 169.68 C 324.09 172.31 322.84 182.12 326.00 191.00 Z"/>
</g>
<g fill="#357794" fill-opacity="1.00" stroke="None">
<path d="
M 219.00 162.00 
C 219.00 162.00 219.00 162.50 219.00 163.00
C 220.71 165.32 221.56 174.72 226.92 169.92 C 232.27 165.11 229.42 163.06 230.00 157.00
C 227.55 159.17 222.00 160.93 219.00 162.00 Z"/>
</g>
<g fill="#60757D" fill-opacity="0.38" stroke="None">
<path d="
M 373.00 292.00 
C 376.38 271.19 373.65 246.73 374.00 225.00 C 374.35 203.27 375.53 179.89 373.00 159.00
C 373.88 202.93 375.38 248.14 373.00 292.00 Z"/>
</g>
<g fill="#1B5882" fill-opacity="1.00" stroke="None">
<path d="
M 269.00 170.00 
C 268.98 172.50 261.66 173.01 260.00 178.00
C 260.00 184.33 260.00 190.67 260.00 197.00
C 261.52 190.91 267.37 187.41 273.70 183.70 C 280.03 179.99 280.76 167.76 271.00 169.00
C 270.22 169.31 269.56 169.73 269.00 170.00 Z"/>
</g>
<g fill="#5B98BA" fill-opacity="1.00" stroke="None">
<path d="
M 260.00 178.00 
C 261.66 173.01 268.98 172.50 269.00 170.00
C 264.18 172.29 261.65 172.58 260.00 178.00 Z"/>
</g>
<g fill="#CDE1E7" fill-opacity="1.00" stroke="None">
<path d="
M 161.00 190.00 
C 164.59 182.62 179.37 182.58 185.01 178.01 C 190.65 173.44 191.26 180.80 194.00 183.00
C 194.00 170.44 186.07 173.22 179.08 178.08 C 172.10 182.94 163.54 182.17 161.00 190.00 Z"/>
</g>
<g fill="#9EC0C7" fill-opacity="1.00" stroke="None">
<path d="
M 161.00 190.00 
C 160.15 192.63 161.13 191.82 163.00 194.00
C 170.44 199.70 188.92 191.50 194.00 185.00
C 194.12 184.53 194.00 183.50 194.00 183.00
C 191.26 180.80 190.65 173.44 185.01 178.01 C 179.37 182.58 164.59 182.62 161.00 190.00 Z"/>
</g>
<g fill="#6A7F89" fill-opacity="1.00" stroke="None">
<path d="
M 240.00 225.00 
C 239.50 222.56 240.00 219.49 240.00 217.00
C 240.00 203.39 240.25 188.89 239.00 176.00
C 239.00 190.54 235.41 211.76 240.00 225.00 Z"/>
</g>
<g fill="#143F60" fill-opacity="1.00" stroke="None">
<path d="
M 224.00 182.00 
C 230.80 182.86 223.37 194.19 219.75 196.75 C 216.14 199.32 211.08 204.65 206.00 207.00
C 215.88 204.48 223.94 196.40 232.00 191.00
C 232.00 187.33 232.00 183.67 232.00 180.00
C 228.72 178.83 226.34 180.99 224.00 182.00 Z"/>
</g>
<g fill="#CEDFDD" fill-opacity="1.00" stroke="None">
<path d="
M 161.00 227.00 
C 175.28 231.95 191.84 248.36 209.00 252.00
C 205.38 255.39 199.75 255.91 198.00 261.00
C 202.37 263.05 205.35 263.07 209.67 265.33 C 214.00 267.59 218.58 265.20 223.00 266.00
C 257.15 253.86 287.27 229.13 322.00 218.00
C 334.49 214.00 341.79 206.54 354.77 202.77 C 367.75 199.00 370.44 176.62 357.08 183.08 C 343.72 189.53 336.52 193.17 324.25 198.25 C 311.97 203.32 304.18 209.10 292.69 214.69 C 281.21 220.29 271.95 224.68 260.69 230.69 C 249.44 236.71 240.38 239.76 229.07 247.07 C 217.77 254.38 203.65 247.88 193.08 242.92 C 182.51 237.95 172.36 229.00 161.00 227.00 Z"/>
</g>
<g fill="#125787" fill-opacity="1.00" stroke="None">
<path d="
M 220.00 184.00 
C 219.16 184.72 215.88 187.70 213.00 189.00
C 211.32 189.76 209.72 190.33 208.00 191.00
C 213.71 206.87 194.03 210.90 183.00 206.00
C 193.55 212.33 194.83 210.30 206.00 207.00
C 211.08 204.65 216.14 199.32 219.75 196.75 C 223.37 194.19 230.80 182.86 224.00 182.00
C 222.56 182.62 221.26 183.34 220.00 184.00 Z"/>
</g>
<g fill="#427BA0" fill-opacity="1.00" stroke="None">
<path d="
M 213.00 188.00 
C 212.79 188.39 213.00 189.00 213.00 189.00
C 215.88 187.70 219.16 184.72 220.00 184.00
C 217.75 185.19 214.32 185.56 213.00 188.00 Z"/>
</g>
<g fill="#5A7B88" fill-opacity="1.00" stroke="None">
<path d="
M 163.00 194.00 
C 169.73 201.84 191.20 195.72 194.00 185.00
C 188.92 191.50 170.44 199.70 163.00 194.00 Z"/>
</g>
<g fill="#6CAACE" fill-opacity="1.00" stroke="None">
<path d="
M 180.00 204.00 
C 189.41 199.75 198.41 194.74 208.00 191.00
C 209.72 190.33 211.32 189.76 213.00 189.00
C 213.00 189.00 212.79 188.39 213.00 188.00
C 208.22 188.35 198.37 193.92 194.69 195.69 C 191.02 197.47 178.66 201.75 180.00 204.00 Z"/>
</g>
<g fill="#CDDFDF" fill-opacity="1.00" stroke="None">
<path d="
M 298.00 201.00 
C 298.37 199.54 298.98 194.89 299.00 194.00
C 299.38 183.43 289.19 190.55 283.23 193.23 C 277.27 195.91 272.32 199.89 265.23 202.23 C 258.14 204.56 259.83 216.15 260.00 223.00
C 269.68 216.18 293.31 213.70 298.00 201.00 Z"/>
</g>
<g fill="#79909A" fill-opacity="1.00" stroke="None">
<path d="
M 307.00 196.00 
C 311.30 200.30 316.94 195.21 318.00 190.00
C 313.84 190.17 313.76 195.73 310.00 197.00
C 309.87 196.07 306.44 195.51 307.00 196.00 Z"/>
</g>
<g fill="#1C7EBA" fill-opacity="1.00" stroke="None">
<path d="
M 180.00 204.00 
C 180.64 205.08 181.82 205.48 183.00 206.00
C 194.03 210.90 213.71 206.87 208.00 191.00
C 198.41 194.74 189.41 199.75 180.00 204.00 Z"/>
</g>
<g fill="#79888D" fill-opacity="1.00" stroke="None">
<path d="
M 298.00 201.00 
C 298.78 198.88 299.16 196.77 299.00 194.00
C 298.98 194.89 298.37 199.54 298.00 201.00 Z"/>
</g>
<g fill="#1A4261" fill-opacity="1.00" stroke="None">
<path d="
M 232.00 197.00 
C 222.71 204.23 211.25 210.07 201.00 216.00
C 211.13 223.95 222.21 217.12 232.00 213.00
C 232.00 207.67 232.00 202.33 232.00 197.00 Z"/>
</g>
<g fill="#607A86" fill-opacity="1.00" stroke="None">
<path d="
M 222.00 243.00 
C 218.05 242.79 207.19 240.24 202.00 238.00
C 193.23 234.22 185.58 226.94 176.31 223.70 C 167.03 220.45 156.58 213.00 157.00 202.00
C 157.02 201.50 156.87 200.04 157.00 200.00
C 154.34 200.77 155.35 212.57 158.75 215.25 C 162.16 217.93 164.62 220.65 169.77 223.23 C 174.92 225.81 174.40 225.37 181.77 229.23 C 189.14 233.09 198.68 239.80 206.78 242.22 C 214.88 244.65 214.65 245.05 222.00 243.00 Z"/>
</g>
<g fill="#C7D8DA" fill-opacity="1.00" stroke="None">
<path d="
M 157.00 202.00 
C 163.05 208.63 175.50 209.56 182.70 215.31 C 189.89 221.05 201.00 225.27 210.00 227.00
C 209.47 230.28 205.87 230.95 203.00 230.00
C 209.18 233.00 200.98 234.71 202.00 238.00
C 207.19 240.24 218.05 242.79 222.00 243.00
C 233.37 241.71 236.83 229.64 233.00 220.00
C 226.42 223.19 218.42 225.31 211.01 224.99 C 203.60 224.68 198.10 220.32 192.08 217.92 C 186.05 215.53 179.75 210.38 174.23 208.77 C 168.71 207.16 162.13 199.01 157.00 200.00
C 156.87 200.04 157.02 201.50 157.00 202.00 Z"/>
</g>
<g fill="#A3BABE" fill-opacity="1.00" stroke="None">
<path d="
M 202.00 238.00 
C 200.98 234.71 209.18 233.00 203.00 230.00
C 205.87 230.95 209.47 230.28 210.00 227.00
C 201.00 225.27 189.89 221.05 182.70 215.31 C 175.50 209.56 163.05 208.63 157.00 202.00
C 156.58 213.00 167.03 220.45 176.31 223.70 C 185.58 226.94 193.23 234.22 202.00 238.00 Z"/>
</g>
<g fill="#4BDFF7" fill-opacity="1.00" stroke="None">
<path d="
M 240.00 268.00 
C 244.59 266.40 249.60 264.41 255.25 262.25 C 260.89 260.08 265.52 259.83 270.00 258.00
C 270.26 260.44 271.76 262.52 272.00 265.00
C 269.47 262.35 267.87 267.09 265.00 266.00
C 264.70 267.57 265.25 269.61 267.00 270.00
C 280.22 263.68 294.23 256.35 308.00 252.00
C 317.05 246.74 331.80 241.03 340.31 236.31 C 348.81 231.58 369.00 227.06 365.99 214.01 C 362.98 200.96 344.10 215.97 335.23 219.23 C 326.36 222.49 313.16 230.93 303.23 235.23 C 293.30 239.53 281.62 246.41 271.70 251.70 C 261.77 256.98 249.48 262.13 240.00 268.00 Z"/>
</g>
<g fill="#8DAAB7" fill-opacity="1.00" stroke="None">
<path d="
M 240.00 225.00 
C 242.81 233.11 251.49 229.40 253.00 222.00
C 253.16 221.53 248.25 227.89 245.08 226.92 C 241.91 225.95 240.27 219.75 240.00 217.00
C 240.00 219.49 239.50 222.56 240.00 225.00 Z"/>
</g>
<g fill="#84A6B4" fill-opacity="1.00" stroke="None">
<path d="
M 223.00 266.00 
C 223.81 266.15 224.14 266.86 225.00 267.00
C 258.77 255.74 290.14 233.24 322.00 218.00
C 287.27 229.13 257.15 253.86 223.00 266.00 Z"/>
</g>
<g fill="#8CA7AF" fill-opacity="1.00" stroke="None">
<path d="
M 158.00 228.00 
C 154.17 237.43 167.56 244.39 174.23 247.77 C 180.90 251.15 190.91 257.69 198.00 261.00
C 199.75 255.91 205.38 255.39 209.00 252.00
C 191.84 248.36 175.28 231.95 161.00 227.00
C 159.04 226.65 159.84 226.07 158.00 228.00 Z"/>
</g>
<g fill="#577583" fill-opacity="1.00" stroke="None">
<path d="
M 225.00 267.00 
C 224.14 266.86 223.81 266.15 223.00 266.00
C 218.58 265.20 214.00 267.59 209.67 265.33 C 205.35 263.07 202.37 263.05 198.00 261.00
C 190.91 257.69 180.90 251.15 174.23 247.77 C 167.56 244.39 154.17 237.43 158.00 228.00
C 150.34 236.03 163.20 245.04 170.92 249.08 C 178.65 253.11 187.68 256.74 195.75 262.25 C 203.83 267.75 215.20 270.27 225.00 267.00 Z"/>
</g>
<g fill="#CADDE1" fill-opacity="1.00" stroke="None">
<path d="
M 350.00 239.00 
C 352.13 239.53 356.50 238.72 359.02 237.02 C 361.55 235.33 366.36 242.17 367.00 240.00
C 366.01 230.12 354.53 236.65 350.00 239.00 Z"/>
</g>
<g fill="#7D9EA6" fill-opacity="1.00" stroke="None">
<path d="
M 350.00 239.00 
C 349.67 239.17 349.19 239.68 349.00 240.00
C 344.66 247.33 331.60 247.65 324.78 252.78 C 317.95 257.90 307.78 260.87 299.92 264.92 C 292.07 268.98 283.85 273.81 275.77 277.77 C 267.69 281.73 258.94 285.61 250.92 289.92 C 242.91 294.24 233.94 300.02 226.00 301.00
C 223.52 301.71 221.73 301.90 219.00 302.00
C 219.02 302.00 219.00 303.00 219.00 303.00
C 219.63 303.89 219.97 303.19 219.00 304.00
C 215.42 306.99 205.16 306.08 204.00 313.00
C 201.69 314.78 196.28 308.48 198.00 313.00
C 203.49 315.74 209.72 317.90 216.00 318.00
C 225.41 318.15 234.13 313.16 242.08 309.08 C 250.02 304.99 257.21 300.74 265.23 297.23 C 273.25 293.71 280.88 289.32 288.69 285.69 C 296.51 282.07 304.55 277.83 312.08 274.08 C 319.62 270.34 328.11 265.85 335.69 262.70 C 343.28 259.54 352.32 251.50 358.00 254.00
C 362.03 251.32 367.52 245.14 367.00 240.00
C 366.36 242.17 361.55 235.33 359.02 237.02 C 356.50 238.72 352.13 239.53 350.00 239.00 Z"/>
</g>
<g fill="#BBCFD4" fill-opacity="1.00" stroke="None">
<path d="
M 226.00 301.00 
C 233.94 300.02 242.91 294.24 250.92 289.92 C 258.94 285.61 267.69 281.73 275.77 277.77 C 283.85 273.81 292.07 268.98 299.92 264.92 C 307.78 260.87 317.95 257.90 324.78 252.78 C 331.60 247.65 344.66 247.33 349.00 240.00
C 327.27 245.86 308.39 262.59 287.08 270.08 C 265.76 277.57 247.75 294.76 226.00 301.00 Z"/>
</g>
<g fill="#2499C6" fill-opacity="1.00" stroke="None">
<path d="
M 267.00 270.00 
C 260.10 273.30 253.10 279.15 245.32 281.32 C 237.54 283.50 231.55 291.33 224.00 293.00
C 225.26 293.00 226.76 293.22 228.00 293.00
C 254.52 279.44 282.51 266.82 308.00 252.00
C 294.23 256.35 280.22 263.68 267.00 270.00 Z"/>
</g>
<g fill="#507385" fill-opacity="1.00" stroke="None">
<path d="
M 216.00 318.00 
C 217.57 318.81 218.04 320.37 216.00 321.00
C 233.07 321.00 249.51 306.23 264.78 299.78 C 280.04 293.32 296.92 284.50 311.77 276.77 C 326.62 269.04 344.17 263.20 358.00 254.00
C 352.32 251.50 343.28 259.54 335.69 262.70 C 328.11 265.85 319.62 270.34 312.08 274.08 C 304.55 277.83 296.51 282.07 288.69 285.69 C 280.88 289.32 273.25 293.71 265.23 297.23 C 257.21 300.74 250.02 304.99 242.08 309.08 C 234.13 313.16 225.41 318.15 216.00 318.00 Z"/>
</g>
<g fill="#1A6C98" fill-opacity="1.00" stroke="None">
<path d="
M 228.00 293.00 
C 226.76 293.22 225.26 293.00 224.00 293.00
C 213.86 293.00 205.57 292.25 197.00 287.00
C 193.21 284.68 189.72 282.10 186.00 280.00
C 175.44 274.05 157.60 269.83 158.00 255.00
C 171.62 258.09 183.79 267.52 196.00 274.00
C 200.02 275.08 203.86 276.56 207.00 277.00
C 204.37 276.18 201.48 275.32 199.00 274.00
C 193.00 270.79 182.22 266.08 178.00 261.00
C 177.77 260.72 177.33 260.17 177.00 260.00
C 173.40 260.93 167.57 256.06 166.00 255.00
C 149.47 248.11 156.89 269.97 167.75 273.25 C 178.61 276.52 184.74 283.70 194.92 289.08 C 205.11 294.45 216.65 298.80 228.00 293.00 Z"/>
</g>
<g fill="#1C81B4" fill-opacity="1.00" stroke="None">
<path d="
M 186.00 280.00 
C 185.23 279.21 184.53 277.93 184.00 277.00
C 187.62 275.07 191.73 271.23 196.00 274.00
C 183.79 267.52 171.62 258.09 158.00 255.00
C 157.60 269.83 175.44 274.05 186.00 280.00 Z"/>
</g>
<g fill="#498CB0" fill-opacity="1.00" stroke="None">
<path d="
M 177.00 260.00 
C 173.37 258.12 169.68 256.53 166.00 255.00
C 167.57 256.06 173.40 260.93 177.00 260.00 Z"/>
</g>
<g fill="#3CCAF2" fill-opacity="1.00" stroke="None">
<path d="
M 240.00 268.00 
C 228.05 275.40 213.12 280.08 200.00 273.00
C 199.69 272.96 199.06 274.02 199.00 274.00
C 201.48 275.32 204.37 276.18 207.00 277.00
C 208.97 277.61 211.59 277.79 213.00 279.00
C 206.73 276.87 202.74 284.14 197.00 281.00
C 195.38 283.19 194.95 285.03 197.00 287.00
C 205.57 292.25 213.86 293.00 224.00 293.00
C 231.55 291.33 237.54 283.50 245.32 281.32 C 253.10 279.15 260.10 273.30 267.00 270.00
C 265.25 269.61 264.70 267.57 265.00 266.00
C 267.87 267.09 269.47 262.35 272.00 265.00
C 271.76 262.52 270.26 260.44 270.00 258.00
C 265.52 259.83 260.89 260.08 255.25 262.25 C 249.60 264.41 244.59 266.40 240.00 268.00 Z"/>
</g>
<g fill="#71B2D8" fill-opacity="1.00" stroke="None">
<path d="
M 344.00 268.00 
C 349.34 266.13 356.96 261.76 364.00 262.00
C 364.15 263.41 364.65 265.34 366.00 266.00
C 365.43 253.81 348.88 265.31 344.00 268.00 Z"/>
</g>
<g fill="#4A8BAD" fill-opacity="1.00" stroke="None">
<path d="
M 199.00 274.00 
C 199.06 274.02 199.69 272.96 200.00 273.00
C 192.83 269.13 185.45 264.67 178.00 261.00
C 182.22 266.08 193.00 270.79 199.00 274.00 Z"/>
</g>
<g fill="#2D8DCB" fill-opacity="1.00" stroke="None">
<path d="
M 344.00 268.00 
C 333.93 273.55 323.36 278.16 313.00 283.00
C 315.35 282.29 320.70 281.64 324.00 280.00
C 322.95 282.85 326.88 287.68 320.00 287.00
C 323.13 290.45 316.41 293.17 319.00 296.00
C 326.92 291.59 336.42 288.41 343.75 283.75 C 351.09 279.10 361.97 278.13 366.00 269.00
C 366.12 268.07 366.04 266.93 366.00 266.00
C 364.65 265.34 364.15 263.41 364.00 262.00
C 356.96 261.76 349.34 266.13 344.00 268.00 Z"/>
</g>
<g fill="#256697" fill-opacity="1.00" stroke="None">
<path d="
M 319.00 296.00 
C 313.20 299.23 307.02 303.05 300.00 304.00
C 303.66 298.90 299.19 292.51 305.00 290.00
C 297.45 289.64 289.00 298.81 282.00 299.00
C 281.72 299.23 281.19 299.68 281.00 300.00
C 278.79 303.73 273.43 303.22 271.00 304.00
C 269.88 304.56 268.73 305.06 268.00 306.00
C 267.53 306.61 267.38 307.38 267.00 308.00
C 265.18 311.00 262.50 313.79 260.00 316.00
C 265.12 317.97 259.50 320.88 258.00 325.00
C 276.58 319.12 293.46 308.32 312.00 302.00
C 321.32 298.30 333.09 292.22 341.77 287.77 C 350.45 283.32 364.48 280.48 366.00 269.00
C 361.97 278.13 351.09 279.10 343.75 283.75 C 336.42 288.41 326.92 291.59 319.00 296.00 Z"/>
</g>
<g fill="#22A0D5" fill-opacity="1.00" stroke="None">
<path d="
M 186.00 280.00 
C 189.72 282.10 193.21 284.68 197.00 287.00
C 194.95 285.03 195.38 283.19 197.00 281.00
C 202.74 284.14 206.73 276.87 213.00 279.00
C 211.59 277.79 208.97 277.61 207.00 277.00
C 203.86 276.56 200.02 275.08 196.00 274.00
C 191.73 271.23 187.62 275.07 184.00 277.00
C 184.53 277.93 185.23 279.21 186.00 280.00 Z"/>
</g>
<g fill="#416173" fill-opacity="1.00" stroke="None">
<path d="
M 216.00 321.00 
C 218.04 320.37 217.57 318.81 216.00 318.00
C 209.72 317.90 203.49 315.74 198.00 313.00
C 194.90 311.45 192.60 308.34 189.00 308.00
C 191.18 305.91 192.89 305.55 191.00 303.00
C 195.92 297.36 203.55 306.41 209.00 303.00
C 200.41 304.02 191.70 295.73 184.77 292.23 C 177.84 288.73 169.18 281.65 164.00 280.00
C 162.36 277.25 159.30 280.68 157.00 280.00
C 156.68 287.03 161.56 292.08 166.00 297.00
C 163.23 297.24 162.35 293.85 160.00 293.00
C 165.80 301.31 176.87 304.10 185.77 309.23 C 194.67 314.36 205.40 321.00 216.00 321.00 Z"/>
</g>
<g fill="#7D95A3" fill-opacity="1.00" stroke="None">
<path d="
M 209.00 303.00 
C 209.29 302.78 209.77 302.05 210.00 302.00
C 192.47 300.81 180.72 283.48 164.00 280.00
C 169.18 281.65 177.84 288.73 184.77 292.23 C 191.70 295.73 200.41 304.02 209.00 303.00 Z"/>
</g>
<g fill="#327DB4" fill-opacity="1.00" stroke="None">
<path d="
M 313.00 283.00 
C 303.24 287.56 290.15 292.20 282.00 299.00
C 289.00 298.81 297.45 289.64 305.00 290.00
C 299.19 292.51 303.66 298.90 300.00 304.00
C 307.02 303.05 313.20 299.23 319.00 296.00
C 316.41 293.17 323.13 290.45 320.00 287.00
C 326.88 287.68 322.95 282.85 324.00 280.00
C 320.70 281.64 315.35 282.29 313.00 283.00 Z"/>
</g>
<g fill="#315F7D" fill-opacity="1.00" stroke="None">
<path d="
M 360.00 287.00 
C 359.34 287.24 352.13 291.71 347.92 292.92 C 343.72 294.14 338.75 298.15 335.00 300.00
C 333.33 301.78 333.19 301.16 335.00 303.00
C 331.52 301.74 328.99 307.92 327.00 304.00
C 326.86 306.33 324.39 308.94 322.00 309.00
C 322.27 312.01 322.45 312.68 325.00 314.00
C 323.34 315.74 319.77 315.98 320.00 319.00
C 329.20 314.90 338.04 309.48 348.00 308.00
C 354.51 306.65 358.40 303.11 361.75 297.75 C 365.09 292.38 368.88 285.34 360.00 287.00 Z"/>
</g>
<g fill="#607E90" fill-opacity="1.00" stroke="None">
<path d="
M 234.00 348.00 
C 250.66 344.00 266.96 332.42 283.69 324.69 C 300.43 316.97 318.46 308.18 335.00 300.00
C 338.75 298.15 343.72 294.14 347.92 292.92 C 352.13 291.71 359.34 287.24 360.00 287.00
C 337.45 291.20 317.53 308.92 296.23 317.23 C 274.93 325.53 255.05 338.70 234.00 348.00 Z"/>
</g>
<g fill="#5682A0" fill-opacity="1.00" stroke="None">
<path d="
M 271.00 304.00 
C 273.43 303.22 278.79 303.73 281.00 300.00
C 277.81 301.57 274.26 302.36 271.00 304.00 Z"/>
</g>
<g fill="#254963" fill-opacity="1.00" stroke="None">
<path d="
M 234.00 348.00 
C 213.09 359.58 187.53 347.08 172.00 332.00
C 188.23 332.85 206.73 350.70 223.92 345.92 C 241.12 341.15 252.53 330.88 268.32 324.32 C 284.11 317.77 297.21 309.98 312.00 302.00
C 293.46 308.32 276.58 319.12 258.00 325.00
C 259.50 320.88 265.12 317.97 260.00 316.00
C 262.50 313.79 265.18 311.00 267.00 308.00
C 259.45 313.73 249.73 315.37 241.32 320.32 C 232.92 325.27 221.48 329.49 211.00 329.00
C 212.33 326.50 216.74 329.57 218.00 327.00
C 195.68 328.63 178.43 309.28 158.00 304.00
C 157.53 306.52 159.03 310.23 157.00 312.00
C 156.53 309.48 158.03 305.77 156.00 304.00
C 156.23 312.60 155.25 322.12 157.00 330.00
C 158.70 334.50 165.33 346.56 169.00 351.00
C 169.70 352.98 172.17 353.73 174.00 354.00
C 173.57 351.74 168.79 350.46 171.00 348.00
C 178.79 353.85 188.38 360.52 197.75 364.25 C 207.13 367.97 223.55 368.02 233.98 364.98 C 244.40 361.93 253.07 355.03 262.92 350.92 C 272.78 346.82 282.10 341.17 291.77 336.77 C 301.44 332.37 311.65 327.65 320.92 322.92 C 330.19 318.18 338.55 312.03 348.00 308.00
C 338.04 309.48 329.20 314.90 320.00 319.00
C 319.77 315.98 323.34 315.74 325.00 314.00
C 322.45 312.68 322.27 312.01 322.00 309.00
C 324.39 308.94 326.86 306.33 327.00 304.00
C 328.99 307.92 331.52 301.74 335.00 303.00
C 333.19 301.16 333.33 301.78 335.00 300.00
C 318.46 308.18 300.43 316.97 283.69 324.69 C 266.96 332.42 250.66 344.00 234.00 348.00 Z"/>
</g>
<g fill="#5D7F8E" fill-opacity="1.00" stroke="None">
<path d="
M 198.00 313.00 
C 196.28 308.48 201.69 314.78 204.00 313.00
C 205.16 306.08 215.42 306.99 219.00 304.00
C 216.54 304.71 213.51 303.46 211.00 304.00
C 212.77 301.97 216.48 303.47 219.00 303.00
C 219.00 303.00 219.02 302.00 219.00 302.00
C 216.06 302.11 212.94 302.20 210.00 302.00
C 209.77 302.05 209.29 302.78 209.00 303.00
C 203.55 306.41 195.92 297.36 191.00 303.00
C 192.89 305.55 191.18 305.91 189.00 308.00
C 192.60 308.34 194.90 311.45 198.00 313.00 Z"/>
</g>
<g fill="#B7CACF" fill-opacity="1.00" stroke="None">
<path d="
M 219.00 304.00 
C 219.97 303.19 219.63 303.89 219.00 303.00
C 216.48 303.47 212.77 301.97 211.00 304.00
C 213.51 303.46 216.54 304.71 219.00 304.00 Z"/>
</g>
<g fill="#4E728B" fill-opacity="1.00" stroke="None">
<path d="
M 218.00 327.00 
C 216.74 329.57 212.33 326.50 211.00 329.00
C 221.48 329.49 232.92 325.27 241.32 320.32 C 249.73 315.37 259.45 313.73 267.00 308.00
C 267.38 307.38 267.53 306.61 268.00 306.00
C 252.64 314.48 235.22 324.20 218.00 327.00 Z"/>
</g>
<g fill="#3B5162" fill-opacity="1.00" stroke="None">
<path d="
M 335.00 323.00 
C 334.78 323.12 335.00 324.00 335.00 324.00
C 340.84 321.62 348.55 318.91 352.00 314.00
C 346.26 316.90 340.94 320.43 335.00 323.00 Z"/>
</g>
<g fill="#4C6474" fill-opacity="1.00" stroke="None">
<path d="
M 335.00 324.00 
C 335.00 324.00 334.78 323.12 335.00 323.00
C 315.88 331.41 299.45 342.91 280.07 351.07 C 260.70 359.23 241.97 373.36 220.00 374.00
C 241.49 376.76 260.76 359.81 280.31 352.31 C 299.85 344.80 315.92 332.24 335.00 324.00 Z"/>
</g>
<g fill="#7991A2" fill-opacity="1.00" stroke="None">
<path d="
M 157.00 330.00 
C 158.78 338.02 162.45 345.62 169.00 351.00
C 165.33 346.56 158.70 334.50 157.00 330.00 Z"/>
</g>
<g fill="#3D515B" fill-opacity="0.69" stroke="None">
<path d="
M 281.00 361.00 
C 285.87 359.43 291.90 355.29 297.00 352.00
C 290.87 354.65 286.38 357.57 281.00 361.00 Z"/>
</g>
</svg>